<svg xmlns="http://www.w3.org/2000/svg" width="110.46" height="36.172" viewBox="0 0 110.46 36.172">
  <path id="Azell" d="M345.321,169.322a3.266,3.266,0,0,0-.336-.085,3.161,3.161,0,0,1-2.251-1.489,16.62,16.62,0,0,1-1.476-3q-4.551-11.448-9.088-22.9a29.747,29.747,0,0,1-1.846-5.157c-2.293,1.189-4.61,2.269-6.825,3.49a6.8,6.8,0,0,0,.006.826,2.48,2.48,0,0,1-.248,1.342q-4.757,10.945-9.507,21.894a30.113,30.113,0,0,1-1.4,2.754,4.794,4.794,0,0,1-2.81,2.218c-.127.041-.249.1-.394.154.011.164.021.309.032.468h8.615v-.521c-.177-.041-.327-.072-.476-.111a5.848,5.848,0,0,1-1.864-.727,1.937,1.937,0,0,1-.894-2.085,19.339,19.339,0,0,1,1.529-4.1h16.8c.436,1.138.9,2.265,1.291,3.415a2.636,2.636,0,0,1,.1,1.217,2.375,2.375,0,0,1-1.964,2.064c-.585.134-1.186.2-1.78.3a1.03,1.03,0,0,0-.2.082c.01.161.019.306.028.458h15.014c0-.155,0-.274,0-.391C345.37,169.4,345.344,169.369,345.321,169.322Zm-28.7-8.358,8.159-18.827,7.565,18.809C331.914,161.061,317.226,161.078,316.622,160.964Zm102.364,8.159a2.216,2.216,0,0,1-1.678-1.891,15.546,15.546,0,0,1-.179-2.049q-.017-14.186-.005-28.373c0-.291.032-.583.058-.873.056-.609.119-1.218.188-1.922l-10.9,5.065v.7c.563-.157,1.069-.328,1.588-.435a11.962,11.962,0,0,1,1.681-.239c.475-.029.692.193.76.662a4.66,4.66,0,0,1,.035.669q0,13.026,0,26.051a8.089,8.089,0,0,1-.088,1.025c-.1.761-.207,1.521-.32,2.342,3.189,0,6.329,0,9.478,0v-.532C419.376,169.251,419.181,169.186,418.986,169.123Zm-15.42-2.034a16.681,16.681,0,0,1-.152-1.9q-.015-13.718,0-27.435c0-.874.092-1.747.147-2.621.022-.35.057-.7.092-1.119l-10.9,5.065v.7c.55-.153,1.057-.321,1.577-.43a12.31,12.31,0,0,1,1.68-.246c.486-.032.685.162.767.648a5.209,5.209,0,0,1,.064.872q0,12.893,0,25.785a4.171,4.171,0,0,1-.032.565c-.11.8-.232,1.6-.341,2.4a3.405,3.405,0,0,0,0,.451h9.47v-.489c-.2-.065-.382-.126-.563-.179A2.306,2.306,0,0,1,403.566,167.089Zm-15.129.216a14.974,14.974,0,0,1-2.571.15,7.948,7.948,0,0,1-6.882-3.966,10.471,10.471,0,0,1-1.444-4.263c-.074-.572-.1-1.15-.155-1.786h.685q5.139,0,10.278,0a8.339,8.339,0,0,0,1.182-.082,3.323,3.323,0,0,0,2.793-2.227,4.171,4.171,0,0,0-.173-3.448,7,7,0,0,0-4.808-3.815,14.928,14.928,0,0,0-8.1.27,13.348,13.348,0,0,0-3.915,1.931,10.421,10.421,0,0,0-4.641,8.854,10.648,10.648,0,0,0,1.025,4.949,10.883,10.883,0,0,0,7.116,5.756,16.424,16.424,0,0,0,6.706.391,12.009,12.009,0,0,0,5.226-1.937,7.4,7.4,0,0,0,2.206-2.212c.1-.155.18-.318.277-.49l-.555-.4A6.058,6.058,0,0,1,388.437,167.305Zm-10.274-15.011a7.194,7.194,0,0,1,1.334-2.247,3.948,3.948,0,0,1,6.1-.059,5.416,5.416,0,0,1,1.358,4.871,2.257,2.257,0,0,1-.134.442,1.238,1.238,0,0,1-1.185.836c-.894.017-1.788.041-2.681.05-1.72.017-3.439.027-5.159.038-.1,0-.2-.009-.38-.018A11.817,11.817,0,0,1,378.164,152.294Zm-29.219-4.465q-.624,4.047-1.25,8.113a7.163,7.163,0,0,0,.6-1.2,13.834,13.834,0,0,1,1.853-3.263,5.97,5.97,0,0,1,3.147-2.139,11.9,11.9,0,0,1,2.377-.439c1.424-.089,2.855-.068,4.283-.092.13,0,.26.011.459.021-.119.221-.2.386-.292.544q-2.79,4.821-5.583,9.638c-1.16,1.99-2.321,3.979-3.521,5.945a18.045,18.045,0,0,1-2.645,3.421,5.04,5.04,0,0,1-1.83,1.223c-.118.043-.23.105-.344.159l.025.069h20.35l1.251-8.105-.1-.024q-.257.613-.515,1.227a13.874,13.874,0,0,1-1.711,3.049,6.009,6.009,0,0,1-3.29,2.277,13.548,13.548,0,0,1-2.482.439c-1.269.088-2.545.064-3.819.084a2.273,2.273,0,0,1-.363-.058c.11-.2.192-.345.278-.492q2.925-5.01,5.853-10.019c1.279-2.179,2.554-4.361,3.872-6.517a21.161,21.161,0,0,1,1.608-2.206,3.291,3.291,0,0,1,1.784-1.167c.045-.011.083-.055.145-.1-.007-.141-.014-.288-.021-.429C368.291,147.686,349.329,147.721,348.945,147.829Z" transform="translate(-309.144 -134.015)"/>
</svg>
