<svg xmlns="http://www.w3.org/2000/svg" width="62.011" height="58.491" viewBox="0 0 62.011 58.491">
  <path id="Billnex_icon" data-name="Billnex icon" d="M1641.151-503.572a5.55,5.55,0,0,0-7.307,0,4.787,4.787,0,0,0-1.549,3.772,4.784,4.784,0,0,0,1.549,3.772,5.549,5.549,0,0,0,7.307,0,4.787,4.787,0,0,0,1.55-3.772A4.789,4.789,0,0,0,1641.151-503.572ZM1580.7-446.843h8.715v-24.435l-8.715,1.387Zm25.877-8.186a3.635,3.635,0,0,1-.672-1.58,11.418,11.418,0,0,1-.176-2.105v-26.516l-8.714,1.4v26.871a17.941,17.941,0,0,0,.5,4.416,7.071,7.071,0,0,0,1.871,3.33,9.152,9.152,0,0,0,3.744,2.135,14.96,14.96,0,0,0,5.072.6l1.226-7.193c-1.052-.078-.792-.032-1.415-.309A3.563,3.563,0,0,1,1606.573-455.03Zm17.9,0a3.635,3.635,0,0,1-.673-1.58,11.439,11.439,0,0,1-.176-2.105v-33.51l-8.714,1.4v33.865a17.965,17.965,0,0,0,.5,4.416,7.071,7.071,0,0,0,1.871,3.33,9.148,9.148,0,0,0,3.743,2.135,14.958,14.958,0,0,0,5.072.6l1.228-7.193c-1.052-.078-.792-.032-1.415-.309A3.567,3.567,0,0,1,1624.469-455.03Z" transform="translate(-1580.696 504.944)"/>
</svg>
