<svg xmlns="http://www.w3.org/2000/svg" width="110.259" height="27.995" viewBox="0 0 110.259 27.995">
  <path id="Billnex_logo" data-name="Billnex logo" d="M1472.928-217.449a6.865,6.865,0,0,0-2.551-1.967,8.4,8.4,0,0,0-3.507-.691,9.471,9.471,0,0,0-2.061.213,9.87,9.87,0,0,0-1.839.6v-9.283l-5.279.85v26.042q.707.213,1.628.408t1.931.336q1.014.141,2.058.23t2,.089a11.439,11.439,0,0,0,4.11-.691,8.32,8.32,0,0,0,3.047-1.967,8.509,8.509,0,0,0,1.9-3.082,11.791,11.791,0,0,0,.656-4.039v0a13.97,13.97,0,0,0-.531-3.986A8.849,8.849,0,0,0,1472.928-217.449Zm-4.394,10.841a3.8,3.8,0,0,1-3.26,1.488c-.474,0-.908-.018-1.312-.053s-.732-.077-.993-.124v-9.6a4.611,4.611,0,0,1,1.293-.532,6.241,6.241,0,0,1,1.612-.213q3.756,0,3.756,5.1h0A6.475,6.475,0,0,1,1468.534-206.608Zm10.612-16.9a2.9,2.9,0,0,0-.937,2.286,2.9,2.9,0,0,0,.937,2.285,3.362,3.362,0,0,0,4.429,0,2.9,2.9,0,0,0,.937-2.285,2.9,2.9,0,0,0-.937-2.286A3.362,3.362,0,0,0,1479.146-223.5Zm-.409,22.423h5.279v-14.808l-5.279.843Zm26.518-4.96a2.206,2.206,0,0,1-.407-.957,6.9,6.9,0,0,1-.106-1.276v-20.3l-5.28.85v20.515a10.848,10.848,0,0,0,.3,2.675,4.285,4.285,0,0,0,1.134,2.019,5.533,5.533,0,0,0,2.268,1.293,9.037,9.037,0,0,0,3.072.364l.744-4.358c-.637-.047-.483-.022-.858-.187A2.158,2.158,0,0,1,1505.255-206.041Zm-10.841,0a2.206,2.206,0,0,1-.407-.957,6.938,6.938,0,0,1-.106-1.276v-16.065l-5.28.85v16.277a10.86,10.86,0,0,0,.3,2.675,4.286,4.286,0,0,0,1.133,2.019,5.538,5.538,0,0,0,2.269,1.293,9.038,9.038,0,0,0,3.072.364l.744-4.358c-.638-.047-.483-.022-.858-.187A2.154,2.154,0,0,1,1494.414-206.041Zm30.276-11.731a5.955,5.955,0,0,0-2.5-1.753,10.877,10.877,0,0,0-3.95-.62,28.605,28.605,0,0,0-4.465.339,29.557,29.557,0,0,0-3.472.727v18h5.28v-14.381q.5-.075,1.133-.129t1.2-.053a2.746,2.746,0,0,1,2.516,1.063,7.121,7.121,0,0,1,.674,3.615v9.886h5.28v-10.525a14.388,14.388,0,0,0-.39-3.473A6.864,6.864,0,0,0,1524.69-217.772Zm14.171-2.442a8.928,8.928,0,0,0-3.312.638,8.324,8.324,0,0,0-2.852,1.878,9.3,9.3,0,0,0-2,3.1,11.4,11.4,0,0,0-.762,4.34l0,0a12.155,12.155,0,0,0,.585,3.827,8.1,8.1,0,0,0,1.808,3.064,8.523,8.523,0,0,0,3.082,2.037,11.734,11.734,0,0,0,4.376.744,18.768,18.768,0,0,0,1.984-.106q.992-.105,1.86-.266a15.069,15.069,0,0,0,1.576-.375,7.278,7.278,0,0,0,1.134-.425l-.709-4.287a10.753,10.753,0,0,1-2.285.655,15.273,15.273,0,0,1-2.852.265,6.121,6.121,0,0,1-3.611-.956,3.507,3.507,0,0,1-1.524-2.587h11.975c.024-.283.049-.608.071-.974s.035-.7.035-1.01q0-4.712-2.3-7.139A8.231,8.231,0,0,0,1538.861-220.214Zm-3.51,7.936a7.531,7.531,0,0,1,.336-1.329,3.584,3.584,0,0,1,.656-1.151,3.15,3.15,0,0,1,1.063-.8,3.548,3.548,0,0,1,1.524-.3,3.343,3.343,0,0,1,1.54.319,3.215,3.215,0,0,1,1.031.815,3.286,3.286,0,0,1,.6,1.133,5.452,5.452,0,0,1,.23,1.311Zm29.833,6.7a55.349,55.349,0,0,0-3.95-5.077l6.469-9.063h-5.456l-3.705,5.224-3.665-5.226h-5.7l3.17,4.505,3.342,4.748q-.977,1.068-1.991,2.286a31.219,31.219,0,0,0-1.884,2.508q-.872,1.292-1.6,2.5t-1.176,2.086h5.37q.373-.706.854-1.519t.979-1.645a7.182,7.182,0,0,1,1.051-1.387q.553-.555,1.089-1.013.56.494,1.139,1.1a8.594,8.594,0,0,1,1.108,1.471q.533.869.957,1.666t.713,1.331h5.662A46.665,46.665,0,0,0,1565.183-205.578Z" transform="translate(-1457.691 228.575)"/>
</svg>
