<svg xmlns="http://www.w3.org/2000/svg" width="122.509" height="33.276" viewBox="0 0 122.509 33.276">
  <g id="Bruker" transform="translate(0)">
    <path id="Path_80" data-name="Path 80" d="M1057.586,196.448a5.221,5.221,0,0,0,2.19-1.907,6.275,6.275,0,0,0,.95-3.493,5.063,5.063,0,0,0-2.024-4.416,5.724,5.724,0,0,0-2.282-.964,16.13,16.13,0,0,0-2.965-.239h-9.015v23.013h9.17a12.153,12.153,0,0,0,3.375-.423,6.193,6.193,0,0,0,2.452-1.316,6.6,6.6,0,0,0,1.778-5.036,5.368,5.368,0,0,0-1.1-3.475A5.54,5.54,0,0,0,1057.586,196.448Zm-.524-3.706a2.333,2.333,0,0,1-.561,1.616,2.259,2.259,0,0,1-1.752.614h-6.807v-6.382h6.806c1.557.011,2.313.7,2.313,2.117Zm-9.119,5.39h7.181a2.791,2.791,0,0,1,1.787.527,1.9,1.9,0,0,1,.639,1.574v2.736a2.065,2.065,0,0,1-.7,1.743,3.053,3.053,0,0,1-1.934.568h-6.969Z" transform="translate(-1044.441 -175.671)"/>
    <path id="Path_81" data-name="Path 81" d="M1133.043,198.158a5.919,5.919,0,0,0,1.6-1.132,5.343,5.343,0,0,0,1.285-2.159,10.065,10.065,0,0,0-.025-5.639,5.033,5.033,0,0,0-1.347-2.112,5.825,5.825,0,0,0-2.32-1.274,11.178,11.178,0,0,0-3.182-.414h-8.713v23.013h3.5v-9.576h3.469l5.31,9.576h4.012l-5.622-9.708A6.926,6.926,0,0,0,1133.043,198.158Zm-.389-7.256v2.508a2.533,2.533,0,0,1-.627,1.716,2.261,2.261,0,0,1-1.815.711h-6.367v-7.247h6.367a2.546,2.546,0,0,1,1.794.607A2.225,2.225,0,0,1,1132.654,190.9Z" transform="translate(-1098.731 -175.671)"/>
    <path id="Path_82" data-name="Path 82" d="M1206.521,200.445a5.576,5.576,0,0,1-1.357,3.966,5.1,5.1,0,0,1-3.887,1.439,5.039,5.039,0,0,1-3.854-1.429,5.622,5.622,0,0,1-1.341-3.976V185.428h-3.5V200.2a10.267,10.267,0,0,0,.613,3.648,7.555,7.555,0,0,0,1.756,2.745,7.853,7.853,0,0,0,2.751,1.739,10,10,0,0,0,3.576.614,10.162,10.162,0,0,0,3.6-.613,7.9,7.9,0,0,0,2.771-1.739,7.572,7.572,0,0,0,1.762-2.745,10.221,10.221,0,0,0,.616-3.649V185.428h-3.5Z" transform="translate(-1150.401 -175.67)"/>
    <path id="Path_83" data-name="Path 83" d="M1290.39,185.429h-4.3l-9.241,10.394V185.429h-3.5v23.013h3.5V196.547l10.021,11.837.049.058h4.292l-10.544-12.261Z" transform="translate(-1208.169 -175.67)"/>
    <path id="Path_84" data-name="Path 84" d="M1347.013,208.442h15.375V205.28h-11.873V198.3h10.341v-3.161h-10.341v-6.546h11.873v-3.161h-15.375Z" transform="translate(-1260.862 -175.67)"/>
    <path id="Path_85" data-name="Path 85" d="M1428.154,198.734a6.935,6.935,0,0,0,2.03-.576,5.917,5.917,0,0,0,1.6-1.132,5.34,5.34,0,0,0,1.285-2.159,10.059,10.059,0,0,0-.024-5.639,5.043,5.043,0,0,0-1.347-2.112,5.826,5.826,0,0,0-2.321-1.274,11.173,11.173,0,0,0-3.181-.414h-8.713v23.013h3.5v-9.576h3.469l5.31,9.576h4.013Zm1.64-7.832v2.508a2.53,2.53,0,0,1-.627,1.716,2.261,2.261,0,0,1-1.815.711h-6.367v-7.247h6.367a2.546,2.546,0,0,1,1.794.607A2.224,2.224,0,0,1,1429.794,190.9Z" transform="translate(-1311.267 -175.671)"/>
    <rect id="Rectangle_115" data-name="Rectangle 115" width="8.722" height="3.253" transform="translate(42.18 3.253)"/>
    <rect id="Rectangle_116" data-name="Rectangle 116" width="8.722" height="3.253" transform="translate(50.901)"/>
  </g>
</svg>
