<svg xmlns="http://www.w3.org/2000/svg" width="68.007" height="83.572" viewBox="0 0 68.007 83.572">
  <path id="Icono_volk" data-name="Icono volk" d="M2215.556-420.548v10.22l11.169-11.754v-2.5l7.089,3.236-2.146-6.264,1.994-6.151-6.117,2.1-6.153-1.994,1.757,5.127Zm7.349-11.629,4.647,1.507,4.622-1.583-1.507,4.647,1.533,4.476-6.424-2.934v3.6l-9.27,9.757v-7.463l7.728-8.133Zm-44.471,6.306-10.156-7.385v10.749a7.817,7.817,0,0,0,3.209,6.3l10.155,7.385v-10.749A7.82,7.82,0,0,0,2178.434-425.871Zm2.259,15.187-8.647-6.289a6.862,6.862,0,0,1-2.818-5.534v-8.885l8.647,6.289a6.863,6.863,0,0,1,2.818,5.534ZM2178.434-407l-10.156-7.385v10.75a7.816,7.816,0,0,0,3.209,6.3l10.155,7.385V-400.7A7.818,7.818,0,0,0,2178.434-407Zm2.259,15.187-8.647-6.289a6.861,6.861,0,0,1-2.818-5.534v-8.886l8.647,6.289a6.861,6.861,0,0,1,2.818,5.534Zm-2.259-52.928-10.156-7.385v10.748a7.817,7.817,0,0,0,3.209,6.3l10.155,7.385v-10.749A7.818,7.818,0,0,0,2178.434-444.741Zm2.259,15.186-8.647-6.289a6.862,6.862,0,0,1-2.818-5.534v-8.885l8.647,6.289a6.861,6.861,0,0,1,2.818,5.534Zm49.807,22.529-2.892-5.784-2.342,4.685h-23.2l-5.986-6.843a7.752,7.752,0,0,0-5.835-2.647h-5.477v26.636a8.864,8.864,0,0,0,1.979,5.573l13.692,16.851h22.45l-7.491-9.988-6.462,8.615-9.067-13.48V-397.27h-.475c-5.123,0-8.609-2.986-9.81-8.383l-.028-.161,1.265,1.517a12.278,12.278,0,0,0,9.461,4.428l23.686-.387,1.027-2.018,2.542,6.953,2.96-5.919,5.785-2.892Zm-15.1,30.065,5.593,7.457h-11.187Zm14.394-24.988-2.118,4.234-2.535-6.935-1.756,3.453-23.108.377a11.327,11.327,0,0,1-8.724-4.086l-3.5-4.2.605,3.638c1.257,5.648,4.985,8.957,10.268,9.143v13.21l9.157,13.615h-7.186L2187.486-386a7.908,7.908,0,0,1-1.767-4.975v-25.687h4.528a6.8,6.8,0,0,1,5.12,2.323l6.27,7.166h24.214l1.756-3.512,2.186,4.369,4.368,2.185ZM2215.32-384.17l-11.99-13.189v14.407h22.3l-5.61-7.48Zm-11.041.27v-11l10,11Zm12.025,0,3.712-4.949,3.712,4.949Zm-9.494-53.64a2.31,2.31,0,0,0,2.307-2.307v-1.086H2204.5v1.086A2.31,2.31,0,0,0,2206.811-437.541Zm-1.357-2.444h2.716v.137a1.36,1.36,0,0,1-1.358,1.358,1.359,1.359,0,0,1-1.357-1.358Zm-10.466,19.55,9.243,10.563v-9.775l8.554,9.775v-11.038a9.627,9.627,0,0,0-9.616-9.616h-1.217a3.834,3.834,0,0,1-3.829-3.829v-.712l.308.52a4.8,4.8,0,0,0,4.107,2.335h13.8l.628-2.313h-3.208a2.1,2.1,0,0,1-2.1-2.1,2.1,2.1,0,0,1,2.1-2.1h4.292l1.4-4.988-3.52,1.549H2210.3a2.924,2.924,0,0,0-2.88-2.444h-7.173l-5.521-4.14v10.509l-10.563,9.242h9.775l-9.775,8.553Zm-8.3-9.5,8.986-7.863v-9.04l4.255,3.191h7.49a1.971,1.971,0,0,1,1.969,1.969v.475h6.64l1.991-.833-.675,2.373h-3.591a3.049,3.049,0,0,0-3.045,3.045,3.049,3.049,0,0,0,3.045,3.046h1.968l-.115.415h-13.072a3.85,3.85,0,0,1-3.291-1.871l-2.074-3.489v4.166a4.784,4.784,0,0,0,4.779,4.779h1.217a8.677,8.677,0,0,1,8.667,8.666v8.511l-8.553-9.775v9.775l-7.863-8.986h-8.727l9.775-8.554Z" transform="translate(-2168.278 452.126)"/>
</svg>
