<svg xmlns="http://www.w3.org/2000/svg" width="54.487" height="87.744" viewBox="0 0 54.487 87.744">
  <path id="Icono_negro_tb" data-name="Icono negro tb" d="M-142.042,462.439c.745.706,1.474,1.43,2.212,2.145.459.441.555.441,1,0,.08-.08.124-.2.323-.23.743,1.612,1.247,1.261,2.472,1.04.028-.005.058-.014.085-.021,2.111-.53,4.061-1.532,6.154-2.116a3.043,3.043,0,0,0,.549-.276.58.58,0,0,0,.283-.75.557.557,0,0,0-.658-.449c-.291.033-.581.075-.869.131-1.265.246-2.536.468-3.79.759-1.177.274-2.4.208-3.569.494a.967.967,0,0,1-.888-.284,15.391,15.391,0,0,0-2.747-1.736c-.305-.171-.638-.295-.961-.436a.357.357,0,0,0-.412.016.354.354,0,0,0-.021.483A6.059,6.059,0,0,0-142.042,462.439Zm5.191-6.712a9.354,9.354,0,0,1,2.841.535,6.011,6.011,0,0,0,.905.218.718.718,0,0,0,.886-.426c.188-.375,0-.607-.286-.816a2.845,2.845,0,0,0-.942-.462c-.876-.242-1.75-.49-2.627-.727a3.805,3.805,0,0,1-2.815-2.287,3.85,3.85,0,0,0-.272-.551c-.1-.169-.162-.415-.419-.4-.277.019-.255.272-.293.468-.03.143-.066.284-.1.429A3.149,3.149,0,0,0-136.851,455.727Zm15.339-7.11c.276.036.305-.2.386-.385a2.359,2.359,0,0,1,2.646-1.568,3.129,3.129,0,0,0,2.186-.605c.9-.623.979-1.087.385-2.02-.222-.349-.408-.385-.677-.107a3.485,3.485,0,0,1-2.053.9,7.126,7.126,0,0,0-2.5,1.027,2.265,2.265,0,0,0-.891,2.242A.586.586,0,0,0-121.512,448.617Zm-12.018,10.468a.7.7,0,0,0-.412.94.909.909,0,0,0,1.015.506,1.668,1.668,0,0,0,.249-.082,32.689,32.689,0,0,0,5.03-2.278c.494-.283.5-.752.708-1.111.023-.392-.3-.572-.774-.42-.754.239-1.493.518-2.243.766C-131.215,457.82-132.307,458.591-133.53,459.084Zm-7.9-1.786c.767.354,1.081,1.1,1.57,1.713a4.035,4.035,0,0,0,2.175,1.462.729.729,0,0,0,.633-.087.676.676,0,0,1,.555-.2c.31.051.637.019.7-.338.063-.338-.272-.478-.5-.645a1.235,1.235,0,0,0-.237-.113c-1.422-.616-2.711-1.486-4.115-2.137-.159-.073-.305-.174-.469-.232a.367.367,0,0,0-.464.14A.3.3,0,0,0-141.428,457.3Zm15.852-8.737a.564.564,0,0,0,.652-.134.5.5,0,0,0,.035-.577c-.033-.08-.063-.164-.1-.244a7.74,7.74,0,0,1-.94-3c0-.38-.523-.757-.949-.747-.241.011-.358.255-.447.506a3.972,3.972,0,0,0-.173,2.171A2.917,2.917,0,0,0-125.576,448.561Zm-5.224,5.686a1.87,1.87,0,0,0,.384.211.442.442,0,0,0,.565-.061c.138-.159.044-.323-.007-.492a5.565,5.565,0,0,0-2.128-2.6,1.548,1.548,0,0,0-.462-.181c-.143.042-.256.068-.366.11-.2.077-.478-.263-.616.071-.1.246.1.446.253.618A15.533,15.533,0,0,0-130.8,454.247Zm-13.7,32.182c-.368-.208-.7.019-.577.415a5.438,5.438,0,0,0,1.408,2.761.5.5,0,0,0,.56.117c.188-.078.213-.26.215-.52a5.828,5.828,0,0,0-.787-2.13A2.43,2.43,0,0,0-144.5,486.43Zm-.682-11.685c.811-.129,1.676-.258,2.536-.41.239-.042.452-.166.377-.48a.963.963,0,0,0-1.045-.743,7.794,7.794,0,0,0-2.2.837c-.2.113-.419.288-.328.553S-145.464,474.729-145.18,474.744Zm12.927.1a.377.377,0,0,0-.481-.066.419.419,0,0,0-.192.455,2.246,2.246,0,0,0,.37.794,8.268,8.268,0,0,1,.856,1.535,1.135,1.135,0,0,0,1.193.839c-.021-1.425-1.017-2.383-1.682-3.5A.23.23,0,0,0-132.253,474.844Zm-7.8-1.3a8.27,8.27,0,0,0,1.943.141c.406.03.755.073,1.1.073.232,0,.5-.054.522-.352.016-.232-.19-.342-.382-.422a1.567,1.567,0,0,0-.253-.071,10.227,10.227,0,0,0-2.519-.054,1.269,1.269,0,0,0-.492.166c-.133.065-.246.169-.2.345C-140.282,473.506-140.167,473.534-140.048,473.546Zm8.936,10.241c-.239,0-.447.108-.37.351a2.732,2.732,0,0,0,1.24,1.713.368.368,0,0,0,.412-.029.332.332,0,0,0,.087-.4,4.512,4.512,0,0,0-.811-1.427A.771.771,0,0,0-131.112,483.787Zm-24.457,25.242c-.492-.377-1.2-.494-1.409-1.214a.322.322,0,0,0-.365-.188.338.338,0,0,0-.31.363c.01.588-.181.947-.844.951a.5.5,0,0,0-.556.542.492.492,0,0,0,.574.518c.682-.054.951.279,1.006.912.031.362.18.774.612.7s.236-.52.283-.8c-.113-.743.016-.837.741-.785.117.009.234.026.351.033a.4.4,0,0,0,.422-.249.451.451,0,0,0-.077-.494A3.133,3.133,0,0,0-155.569,509.029Zm11.465,1.939a.91.91,0,0,0,.849-.944.766.766,0,0,0-.862-.776c-.619.018-.949.342-.931.916A.822.822,0,0,0-144.1,510.968Zm-6.009-2.4c-.258-.044-.522-.049-.853-.075a8.083,8.083,0,0,0-.975.077c-.291.052-.593.2-.537.567a.545.545,0,0,0,.652.452c.579-.049,1.156-.126,1.732-.213.206-.031.406-.141.38-.4A.457.457,0,0,0-150.113,508.571Zm3.919-1.219a.869.869,0,0,0-.794.792c-.026.486.338.807.923.811.52,0,.773-.237.764-.727A.868.868,0,0,0-146.193,507.352Zm37.582-18.676c-.194-.523-.328-.863.11-1.317a1.621,1.621,0,0,0,.321-1.655.918.918,0,0,0-1.083-.8,8.965,8.965,0,0,0-2.5.48c-.628.192-.74.578-.392,1.165a2.7,2.7,0,0,0,1.411,1.28,1.947,1.947,0,0,1,1.244,1.458,5.349,5.349,0,0,0,.288.923,5.12,5.12,0,0,1,.316,4.023,3.659,3.659,0,0,1-2.861,2.906c-.895.183-1.791.3-2.686.45a9.684,9.684,0,0,0-4.062,1.336,7.333,7.333,0,0,0-2.789,3.956,5.969,5.969,0,0,1-4.392,4.166c-.743.193-1.5.274-2.243.452-2.976.714-5.746-.973-7.148-3.849a16.288,16.288,0,0,0-2.285-3.731,8.542,8.542,0,0,0-4.692-3.079,2.979,2.979,0,0,0-2.21.242c-.222.126-.4.361-.74.314a1.062,1.062,0,0,1,.028-.658c.22-1.406.876-2.679,1.209-4.049a.73.73,0,0,1,.607-.558c1.477-.387,2.89-.972,4.338-1.448,2.784-.914,5.631-1.634,8.341-2.771.349-.148.731-.22,1.09-.346a.479.479,0,0,1,.7.324,19.479,19.479,0,0,1,.673,1.906c.241,1.179.457,2.367.757,3.53.246.952.4,1,1.366,1,1.242,0,2.435-.372,3.668-.457.788-.054,1.568-.211,2.35-.34.609-.1.771-.295.687-.886a8.3,8.3,0,0,1-.033-1.23,25.509,25.509,0,0,0-.27-3.858,13.119,13.119,0,0,1-.209-2.278,33.678,33.678,0,0,0-.239-3.865c-.338-3.918-.839-7.823-.843-11.766a2.664,2.664,0,0,0-.326-1.263A6.182,6.182,0,0,0-123.3,465.9a1.734,1.734,0,0,1-.842-1.518,35.941,35.941,0,0,1,.455-6.665,15.349,15.349,0,0,1,.5-2.592c.106-.361.215-.747.652-.876.478-.143.952-.3,1.432-.44.347-.1.574.014.616.4a16.313,16.313,0,0,1,.2,1.922c-.026,1.825.073,3.644.2,5.46a8.725,8.725,0,0,0,.654,3.431.714.714,0,0,0,.661.455,1.517,1.517,0,0,0,.827-.253c.314-.15.644-.391.994-.29a15.929,15.929,0,0,0,2.189.077c1.125.166,1.655-.63,1.727-1.631a13.731,13.731,0,0,0-.058-2.287,25.522,25.522,0,0,1-.417-3.76c.072-1.38.051-2.758,0-4.138-.115-2.991.092-5.988-.2-8.981a9.457,9.457,0,0,0-1.987-4.436c-.912-1.331-2.409-1.805-3.851-2.309a20.1,20.1,0,0,0-2.671-.547,1.129,1.129,0,0,1-1-.851,35.468,35.468,0,0,0-2.151-5.1,18.134,18.134,0,0,0-2.156-3.21,3.418,3.418,0,0,0-2.276-1.368,15.447,15.447,0,0,0-5.254-.017,13.453,13.453,0,0,0-4.048,1.144c-.8.422-1.582.9-2.372,1.35a17.992,17.992,0,0,0-4.5,3.36,11.975,11.975,0,0,1-1.4,1.342,37.729,37.729,0,0,0-4.807,5.245,2.059,2.059,0,0,0-.314.527,45.256,45.256,0,0,0-1.758,4.609c-.429,1.371-.822,2.754-1.286,4.116a17.561,17.561,0,0,0-1.076,6.562,27.482,27.482,0,0,1-.281,3.684,6.683,6.683,0,0,1-.3,1.375,9.558,9.558,0,0,0-.354,1.455,6.641,6.641,0,0,0,1.238,5.557,2.848,2.848,0,0,0,3.253.776,1.242,1.242,0,0,0,.923-1.165,2.3,2.3,0,0,1,.244-.841,3.277,3.277,0,0,0,.208-1.9,8.671,8.671,0,0,1-.056-2.808,10.867,10.867,0,0,0,.1-1.579,20.7,20.7,0,0,1,.345-5.257c.535-2.011.776-4.1,1.739-5.988.642-1.259,1.062-2.61,1.638-3.9a7.127,7.127,0,0,1,.968-1.673A24.643,24.643,0,0,0-145.286,440a10.894,10.894,0,0,1,2.077-2.257A25.625,25.625,0,0,1-139,435.029a6.574,6.574,0,0,1,4.554-.923,4.525,4.525,0,0,1,3.389,2.637c.385.773.323.855-.44,1.277-.846.469-1.666.98-2.55,1.386a5.09,5.09,0,0,0-2,1.685c-.965,1.34-2.329,2.337-3.26,3.7a32.82,32.82,0,0,0-4.132,8.139,54.981,54.981,0,0,0-2.264,8.863,28.5,28.5,0,0,0-.691,5.672,7.246,7.246,0,0,1-.4,2.334c-.157.543-.174.523-.747.378a8.066,8.066,0,0,0-1.779-.478c-.682-.016-.907.221-.8.9.04.262.122.514.181.773.171.766.157.806-.631.815a47.994,47.994,0,0,0-6.578.532,5.65,5.65,0,0,0-1.835.591c-.31.166-.684.3-.672.731a1.162,1.162,0,0,0,.673,1.057,3.278,3.278,0,0,0,1.968.277c1.048-.127,2.1-.234,3.154-.284a7.675,7.675,0,0,0,2.425-.372,2.845,2.845,0,0,1,1.708-.082c-.07.518-.429.773-.665,1.1a11.269,11.269,0,0,0-1.544,2.346,35.54,35.54,0,0,0-1.566,4.019,23.215,23.215,0,0,0-.837,3.234,33.676,33.676,0,0,0-.2,4.65c.03,1.38-.03,2.761-.014,4.141.03,2.847.274,5.685.429,8.528.019.37-.094.556-.422.647-.2.056-.4.1-.6.146a16.8,16.8,0,0,0-2.962.837,12.374,12.374,0,0,1-2.939.9,2.934,2.934,0,0,0-.427.106.71.71,0,0,0-.532.809c.1.727.078,1.46.2,2.191.241,1.481.663,2.918.949,4.387a1.238,1.238,0,0,0,1.137,1.057,23.134,23.134,0,0,0,5.358.039c.846-.075,1.685-.236,2.538-.253,1.879-.04,3.761.056,5.636-.141a3.208,3.208,0,0,1,.877.029c.935.162,1.877,0,2.814.085a2.383,2.383,0,0,0,.942-.2,1.2,1.2,0,0,0,.928-1.134c.07-.706.073-1.408.078-2.113.014-1.879.037-3.759.031-5.637a1.557,1.557,0,0,0-1.329-1.708c-.7-.042-1.39-.16-2.084-.227-1-.092-1.008-.056-1.137-1.021a6.906,6.906,0,0,0-.073-.788,2.218,2.218,0,0,1,.638-2.011,2.773,2.773,0,0,1,2.609-.829,6.446,6.446,0,0,1,3.757,2.59,7.276,7.276,0,0,1,1.045,1.3c.342.714.684,1.429,1.054,2.126a9.445,9.445,0,0,0,2.6,3.166,7.229,7.229,0,0,0,4.457,1.634,17.816,17.816,0,0,0,3.639-.593,6.584,6.584,0,0,0,5.046-4.561c.159-.443.291-.9.487-1.322a5.6,5.6,0,0,1,3.9-3.269c1.146-.288,2.32-.354,3.478-.532a5.315,5.315,0,0,0,3-1.148,6.026,6.026,0,0,0,1.875-3.78A10.559,10.559,0,0,0-108.611,488.676Zm-12.569-6.356c.019,1.952.228,3.9.335,5.847.054,1.01.08,2.02.038,3.033a7.017,7.017,0,0,1-.049.879c-.051.305-.31.414-.586.445-.316.037-.382-.206-.445-.441-.152-.567-.3-1.136-.455-1.7a2.548,2.548,0,0,0-.18-.492.3.3,0,0,0-.361-.18.3.3,0,0,0-.209.347c.044.379.1.757.178,1.13.092.454.211.9.319,1.35-1.092.255-1.273.162-1.49-.78a10.054,10.054,0,0,0-.548-1.765c-.11-.251-.27-.5-.595-.372-.274.108-.248.387-.2.614.138.632.317,1.253.45,1.884.119.57,0,.722-.565.877-.473.129-.593.071-.7-.373-.3-1.273-.588-2.549-.879-3.823-.017-.07-.033-.14-.049-.209-.04-.171-.082-.344-.106-.518-.084-.618-.021-.734.59-.813.441-.058.766-.148.624-.694-.059-.223.037-.321.248-.365a20.548,20.548,0,0,1,2.587-.523,2.681,2.681,0,0,0,1.1-.293c.237-.131.481-.291.389-.611a.609.609,0,0,0-.661-.471c-.586.037-1.174.063-1.755.143a22.406,22.406,0,0,1-2.9.11.916.916,0,0,1-.656-.208c-.274-.251-.745-.457-.644-.867s.6-.225.923-.269a3.992,3.992,0,0,1,.968-.014,3.225,3.225,0,0,0,1.933-.738.669.669,0,0,0,.174-.947c-.277-.546-.581-1.08-.917-1.7a1.827,1.827,0,0,1,1.238.291,7.429,7.429,0,0,1,1.125.844,2.308,2.308,0,0,0,1.2.7C-121.3,481.716-121.185,481.948-121.18,482.32Zm-1.6-13.9c.215.427.106.572-.366.647a4.236,4.236,0,0,1-.612.031,5.756,5.756,0,0,0-2.47.556,2.161,2.161,0,0,0-1.333,2.011.782.782,0,0,0,.157.572c.536.635.815.644,1.39.023a12.015,12.015,0,0,1,2.245-1.832,4.024,4.024,0,0,1,.888-.38c.389-.133.628.033.7.429a10.759,10.759,0,0,1,.183,1.307c.1,2.257.452,4.495.492,6.756.016.909.04.909-.8.691a7.66,7.66,0,0,0-2.259-.3,1.1,1.1,0,0,0-.682.122c-.349.281-.567.181-.759-.174a2.118,2.118,0,0,0-.307-.427.61.61,0,0,1,.049-.933,2.881,2.881,0,0,1,.535-.452c.616-.4,1.242-.78,1.866-1.165.19-.117.494-.159.427-.471s-.361-.359-.624-.383a5.081,5.081,0,0,0-2.575.431c-.269.118-.523.267-.788.391-.574.272-.649.274-1.041-.216a23.5,23.5,0,0,0-1.617-2.085,3.735,3.735,0,0,1-1.064-3.285.758.758,0,0,0,0-.089h-.009c0-.235.019-.471,0-.7a2.535,2.535,0,0,1,1.242-2.451,5.987,5.987,0,0,1,4.425-1.043,2.92,2.92,0,0,1,1.2.516A4.665,4.665,0,0,1-122.781,468.418Zm-8.669-34.734a6.459,6.459,0,0,0-5.622-.918.893.893,0,0,1-1.122-.436,4.555,4.555,0,0,0-1.238-1.233.866.866,0,0,0-.965-.239c-.347.167-.358.511-.359.837-.005.734-.021,1.47.005,2.2a1.093,1.093,0,0,1-.659,1.118c-.928.5-1.83,1.059-2.721,1.625a10.484,10.484,0,0,0-2.07,2.023c-.535.6-.523.612-1.228.236a8.728,8.728,0,0,0-1.094-.564c-.741-.269-1.094.017-.966.78a9.773,9.773,0,0,0,.761,2.7.785.785,0,0,1-.016.814,35.461,35.461,0,0,0-2.268,5.341c-.192.572-.316.63-.912.4a5.826,5.826,0,0,0-1.059-.422c-.661-.118-.9.091-.76.743a8.733,8.733,0,0,0,.912,2.564,3.583,3.583,0,0,1,.185,2.864,19.466,19.466,0,0,0-.626,4.7c.014.874,0,.875-.879,1.041-.682.127-.853.387-.523.952a4.357,4.357,0,0,1,.5,2.029c.026.474.084.891.68.946.077.005.216.1.211.118-.143.549.41,1,.244,1.519a1.584,1.584,0,0,1-.935.885c-.08.036-.159.075-.239.113-.83.391-1.013.332-1.5-.434a4.862,4.862,0,0,1-.912-3.14,11.678,11.678,0,0,1,.412-3.037,11.493,11.493,0,0,0,.527-3.292c.031-.56.106-.6.652-.488a3.237,3.237,0,0,0,1.04.145c.474-.054.621-.213.572-.7a4.137,4.137,0,0,0-.644-1.81c-.33-.52-.64-1.053-.984-1.566a1.418,1.418,0,0,1-.215-1.174c.166-.684.293-1.375.523-2.046.467-1.36.883-2.739,1.34-4.1.262-.78.335-.816,1.024-.326.511.365,1.076.18,1.608.284.223.045.326-.215.359-.427a1.679,1.679,0,0,0-.127-.862,7.679,7.679,0,0,0-.951-1.98,1.283,1.283,0,0,1-.066-1.613,6.017,6.017,0,0,1,.586-.872c.773-.884,1.559-1.756,2.294-2.672a13.771,13.771,0,0,1,1.537-1.442.664.664,0,0,1,1.008-.058,4.025,4.025,0,0,0,.834.487c.9.461,1.406.126,1.364-.895a3.246,3.246,0,0,0-.372-1.352c-.235-.455-.119-.715.229-1.055a10.809,10.809,0,0,1,2.449-1.7c.825-.452,1.613-.963,2.418-1.45a12.186,12.186,0,0,1,3.534-1.308,1.013,1.013,0,0,1,1.252.534,11.661,11.661,0,0,1,1.315,2.383c.127.424.527.618.8.918a.587.587,0,0,0,.631.218c.262-.091.3-.343.312-.582.037-.938.249-1.863.194-2.81a1.4,1.4,0,0,1,.113-.891c2.925,1.4,4.444,3.948,5.561,6.8a13.633,13.633,0,0,0,.9,1.806c.274.478.2.64-.324.722a21.268,21.268,0,0,1-3.583.291c-.687-.009-.856-.335-.462-.884.462-.644.977-1.249,1.45-1.886a.974.974,0,0,0-.356-1.465c-.3-.145-.511.042-.712.209a4.852,4.852,0,0,1-1.875.933A1.088,1.088,0,0,1-131.451,433.684Zm-13.009,28.765c.628-3.262,1.716-6.4,2.526-9.621a8.189,8.189,0,0,1,1.061-2.5c.755-1.157,1.282-2.444,2.081-3.573.1-.145.185-.3.288-.443.181-.251.386-.279.549,0a16.7,16.7,0,0,1,2.011,3.4,3.108,3.108,0,0,0,.124.33.565.565,0,0,0,.6.426c.349-.047.351-.364.349-.621a11.568,11.568,0,0,0-.185-2.8,5.6,5.6,0,0,0-1.268-2.48c-.447-.487-.467-.556.038-.973,1.087-.895,2.212-1.744,3.326-2.6.279-.214.607-.366.876-.593a10.228,10.228,0,0,1,4.614-2.053,11.415,11.415,0,0,1,2.194-.115,3.242,3.242,0,0,1,1.966.255c.309.2.656-.005.989-.228a8.744,8.744,0,0,0-.075,5.44,1.248,1.248,0,0,0,.146.318.428.428,0,0,0,.452.208c.211-.035.276-.2.29-.385.089-1.118.4-2.2.591-3.293.072-.4.2-.8.293-1.2.1-.44.345-.572.775-.427a12.592,12.592,0,0,1,2.454,1.176,4.3,4.3,0,0,1,1.978,3.255,33.6,33.6,0,0,1,.574,6.042.745.745,0,0,1-.4.771c-.46.275-.675.849-1.122,1.207a7.071,7.071,0,0,1-1.333.993,2.562,2.562,0,0,0-.5.359.483.483,0,0,0-.2.543.478.478,0,0,0,.5.286,6.367,6.367,0,0,0,2.28-.6,1.97,1.97,0,0,0,.221-.143c.447-.234.529-.185.57.351.014.206.012.412.01.618q-.008,2.436-.017,4.873-.005,1.8-.014,3.588a3.436,3.436,0,0,1-.031.614.369.369,0,0,1-.452.314.353.353,0,0,1-.324-.356,6.324,6.324,0,0,1,.059-1.406c.042-.319.087-.638.1-.959.016-.359.01-.8-.461-.8-.419,0-.426.424-.436.743-.024.734-.026,1.469-.037,2.2,0,.176.012.352,0,.529a.506.506,0,0,1-.473.544c-.387.019-.358-.324-.365-.576-.017-.734,0-1.469-.021-2.2-.019-.624-.2-.893-.52-.872s-.485.3-.527.886a10.436,10.436,0,0,0,.134,1.666,1.473,1.473,0,0,1-.115,1.057,1.333,1.333,0,0,1-.436-1.047c-.079-1.163-.11-2.332-.164-3.5-.005-.122-.01-.242-.017-.364a.842.842,0,0,1,.679-.972,3.448,3.448,0,0,0,1.233-.665,1.784,1.784,0,0,0,.359-.385c.176-.265.422-.563.167-.876a.69.69,0,0,0-.89-.1c-.321.148-.633.314-.959.445-.474.192-.586.124-.576-.377a8.346,8.346,0,0,0-.092-2.105,1.31,1.31,0,0,0-.4-.854c-.314-.241-.221-.487-.012-.754a8.087,8.087,0,0,0,.542-.8,1.354,1.354,0,0,0-.094-1.343c-.136-.295-.5-.3-.733-.016s-.436.626-.663.933a1.265,1.265,0,0,1-1.354.6,2.018,2.018,0,0,0-1.762.577c-1.631,1.417-1.525,1.292-3.22.436a3.6,3.6,0,0,1-2.229-3.216c-.031-.79-.127-1.578-.153-2.372a11.543,11.543,0,0,1,.541-3.907.962.962,0,0,0-.9-1.17c-.365.017-.464.329-.586.588a9.4,9.4,0,0,0-.858,3.394,8.673,8.673,0,0,0,1.158,5.156,8.792,8.792,0,0,1,.542,1.3,2.89,2.89,0,0,0,3.023,2.079c.424,0,.975-.283,1.245.082.228.3-.122.773-.2,1.17-.206,1.008-.314,2.03-.422,3.051a1.061,1.061,0,0,1-.487.867,5.681,5.681,0,0,0-1.024.963c-.272.307-.194.506.2.654.026.009.056.016.084.024.375.128.874-.012,1.1.428a3.029,3.029,0,0,1,.106,1.218c.024.351.049.7.089,1.052.1.905.044.98-.839.994-.5.007-.992.075-1.49.12a6.349,6.349,0,0,0-4.457,2.685,2.989,2.989,0,0,1-.462.528,16.45,16.45,0,0,0-2.791,2.67c-.164.2-.389.4-.684.265-.251-.117-.221-.387-.251-.619a5.658,5.658,0,0,0-4.24-4.736,1,1,0,0,1-.713-.576c-.307-.569-.678-1.083-1.423-.943a1.468,1.468,0,0,0-1.286,1.367.7.7,0,0,1-.181.485c-.129.114-.262.265-.457.19-.164-.065-.141-.237-.147-.38A14.552,14.552,0,0,1-144.459,462.449Zm4.249,8.523c-.1.234-.347.167-.541.183s-.406,0-.611,0a5.8,5.8,0,0,0-1.3.12c-.2.033-.427.089-.562-.113-.157-.234,0-.447.122-.64a1.21,1.21,0,0,1,.591-.5,2.26,2.26,0,0,1,2.06.329C-140.3,470.528-140.107,470.719-140.21,470.971Zm-6.5,1.211c.061.2.262.424.448.363.757-.242,1.491.211,2.3-.094a7.411,7.411,0,0,1,2.866-.358,48.544,48.544,0,0,1,5.013.11,1.122,1.122,0,0,0,.869-.349c.6-.483.993-1.158,1.572-1.661a8.29,8.29,0,0,1,1.249-.985,4.3,4.3,0,0,1,.27,1.65c-.01.284-.173.366-.441.438-.424.111-.464.279-.188.6,1.669,1.947,3.075,4.087,4.575,6.158q.225.314.455.624c.106.141.209.284.3.434.162.256.14.443-.208.49a1.976,1.976,0,0,0-.767.174.4.4,0,0,0-.246.424.352.352,0,0,0,.4.272,4.683,4.683,0,0,0,.869-.129.791.791,0,0,1,1.031.414c.08.157.2.289.295.44.34.528.316.595-.337.67-1.02.117-2.023.345-3.051.427-.893.073-1.094.6-.539,1.319.375.487.794.942,1.188,1.413a.721.721,0,0,1-.366,1.263c-.654.159-1.322.267-1.985.4a1.263,1.263,0,0,0-.862.385,1.57,1.57,0,0,1-1.068.56,28.448,28.448,0,0,0-3.754,1.219c-1.17.368-2.318.834-3.5,1.172-1.02.291-1.992.706-2.984,1.068-.11.04-.221.08-.333.113-1.026.29-1.1.253-1.242-.783a9.423,9.423,0,0,0-.4-1.8c-.242-.71-.429-.827-1.165-.78a6.143,6.143,0,0,0-1.812.323c-.471.178-.546.091-.555-.438-.017-.9.094-.992,1-1.006.37-.005.975.305,1.054-.225.065-.424-.576-.351-.916-.452-.766-.228-.856-.31-.7-1.125.087-.455-.078-1.013.279-1.348.379-.356.9.033,1.357-.04a6.2,6.2,0,0,1,.82-.005,2.607,2.607,0,0,1-1.34.6c-.2.073-.572.037-.513.349.066.339.413.255.666.2.488-.1.97-.229,1.456-.338a2.282,2.282,0,0,1,1.111-.161c-.328.433-.775.384-1.129.53-.276.115-.8.089-.72.468.087.422.539.153.836.124a2.361,2.361,0,0,0,.516-.107,2.252,2.252,0,0,1,2.6.979,11.973,11.973,0,0,1,1.1,1.8,6.547,6.547,0,0,0,.616.963c.422.5.945.441,1.129-.164.173-.562.518-.628.994-.619s.94-.016,1.409-.031a5.043,5.043,0,0,0,2.395-1.036c.229-.136.239-.387.242-.628a7.487,7.487,0,0,0-.152-1.838,6.367,6.367,0,0,1-.148-.958.958.958,0,0,1,.806-1.167,12.387,12.387,0,0,1,2.346-.358,2.42,2.42,0,0,0,.865-.14c.2-.1.467-.19.4-.5a.445.445,0,0,0-.593-.361c-.635.115-1.273.215-1.91.318a9.822,9.822,0,0,1-1.551.16,9.419,9.419,0,0,1,2.423-.513,2.846,2.846,0,0,0,1.181-.31c.246-.155.391-.366.225-.665-.148-.27-.356-.2-.605-.136-1.184.286-2.376.544-3.6.82.016-.412.263-.392.445-.441q1.954-.531,3.912-1.052c.248-.066.577-.047.581-.41a.464.464,0,0,0-.112-.337.618.618,0,0,0-.478-.159l.007-.009h-.007v0a20.916,20.916,0,0,1-3.028.889,4.191,4.191,0,0,1-2.569.29,2.094,2.094,0,0,0-1.038.129c-.853.2-1.017.113-1.34-.682-.586-1.446-1.373-2.791-2.084-4.174-.091-.178-.18-.412-.438-.349-.19.047-.23.25-.251.429-.066.553-.171,1.106-.181,1.661-.024,1.265-.457,2.484-.372,3.759.026.387-.256.569-.609.633-.462.084-.926.162-1.388.244-.83.148-.919.227-1.052,1.076a.445.445,0,0,1-.455.438,16.92,16.92,0,0,1-1.762.012c-.546-.038-.7-.314-.729-.893a30.967,30.967,0,0,1,.19-5.086,4.738,4.738,0,0,0-.232-2.077c-.413-1.247-.713-2.531-1.12-4.01C-148.046,471.16-147.034,471.094-146.71,472.182Zm5.868,10.72a8.236,8.236,0,0,0,1.432,1.01c.522.314.724.223.879-.366.178-.678.324-1.366.473-2.051.078-.367.054-.8.527-.914a1.314,1.314,0,0,1,1.317.23c.126.117.2.193.079.347-.178.216-.087.368.117.5.38.251.3.585.154.928a3.864,3.864,0,0,1-1.938,1.948,3.367,3.367,0,0,1-1.577.5.333.333,0,0,0-.173.024c-1.184.766-2.234.014-3.356-.394a4.825,4.825,0,0,0,.616-.307c.162-.108.222-.387.073-.448-.532-.216-.461-.8-.761-1.148a2.777,2.777,0,0,0-.574-.558c.115-.021.192-.03.267-.049A2.473,2.473,0,0,1-140.842,482.9Zm-.145-2.447c.122-1.275.277-2.547.291-3.822a.284.284,0,0,1,.314.215c.4.945.818,1.886,1.188,2.843.2.518.136.6-.372.773-.333.11-.68.185-1.02.279C-140.84,480.813-141.013,480.729-140.987,480.455Zm5.243,6.2L-137,485.229l1.054-.5Zm-4.748.86a2.338,2.338,0,0,1-.548-1.052C-140.175,486.356-140.148,486.407-140.491,487.518Zm-4.314,18.1a8.822,8.822,0,0,1-.147-1.84c-.016-.382.124-.565.527-.414a8.984,8.984,0,0,0,1.8.422.706.706,0,0,1,.638.71,21.246,21.246,0,0,1,.1,5.875c-.052.373-.007.759-.031,1.137-.045.666-.065.679-.724.7-.2.007-.41,0-.616,0a23.058,23.058,0,0,0-2.374-.113c-2.229.11-4.46.113-6.691.171a24.781,24.781,0,0,0-2.534.279,6.724,6.724,0,0,1-2.1.073c-.694-.124-1.4.1-2.109,0-.745-.106-.717-.118-.848-.854-.218-1.212-.487-2.416-.736-3.623-.089-.431-.213-.857-.27-1.293-.068-.49.066-.687.539-.7a6.3,6.3,0,0,0,2.13-.522c1.258-.5,2.622-.657,3.857-1.223.342-.157.551-.066.649.314.15.6.326,1.19.49,1.784.19.692.295.816,1.034.827a20.8,20.8,0,0,0,3.869-.127c.75-.129,1.526-.021,2.282-.18a2.364,2.364,0,0,0,.752-.228A.9.9,0,0,0-144.8,505.62Zm-1.61-7.923c-.912-.666-1.929-.506-2.892-.6-.429-.042-.87.073-1.313.042-.293-.021-.651.058-.706.4-.065.4.321.431.6.492a4.984,4.984,0,0,0,.787.1,11.855,11.855,0,0,1,2.978.736c.323.1.492.244.462.621q-.06.788-.078,1.573a17.959,17.959,0,0,0,.225,3.431c.075.443-.038.621-.492.724-1.169.263-1.181.275-1.441-.918a7.631,7.631,0,0,0-.188-.769c-.092-.283-.209-.616-.586-.516-.321.086-.29.408-.248.673.075.464.18.923.244,1.388.038.291.246.659-.258.785-.542.136-.911-.026-1.041-.513-.108-.4-.159-.806-.242-1.209a7.173,7.173,0,0,0-.19-.769c-.091-.274-.276-.48-.59-.392-.283.078-.295.34-.265.583.068.553.157,1.1.221,1.659.031.269.239.654-.185.736-.4.077-.436-.342-.476-.61-.178-1.23-.447-2.449-.666-3.674a19.363,19.363,0,0,1-.384-3.982c.019-.731-.1-1.464-.138-2.2-.042-.874.058-.975.919-.979.291,0,.584.049.877.061.38.016.762.033,1.142.017.263-.01.562-.05.6-.391.037-.279-.188-.419-.406-.511a3.636,3.636,0,0,1-.879-.569,2.6,2.6,0,0,0-1.7-.342c-.487-.012-.619-.2-.595-.635.035-.616.045-1.233.078-1.849.042-.774.115-.85.869-.916a7.992,7.992,0,0,0,.965-.075c.366-.079.433-.368.192-.666a1.452,1.452,0,0,0-.933-.433c-.673-.14-.781-.291-.7-.963a4.165,4.165,0,0,1,.2-.858,20.955,20.955,0,0,0,.813-3.784,6.287,6.287,0,0,1,1.05-2.765,19.084,19.084,0,0,0,1.273-2.608c.2-.414.4-.83.6-1.246l.19.065a7.016,7.016,0,0,1-.155,1.906,51.453,51.453,0,0,1-.928,7.326c-.192,1.075-.3,2.151-.431,3.225-.052.433-.106.872.38,1.167a1.293,1.293,0,0,0,1.4.04c1.352-.691,1.378-.665,1.657.806.082.432.145.868.234,1.3.164.79.541,1.033,1.441.89A25.936,25.936,0,0,0-146.415,497.7Zm8.645-21.933a1.28,1.28,0,0,0,0,1.125,2.357,2.357,0,0,0,3.171,1.226,1.934,1.934,0,0,0,1.111-1.5,3.143,3.143,0,0,0-.126-.576,2.255,2.255,0,0,0-2.086-1.481A2.413,2.413,0,0,0-137.77,475.765Zm2.527-.138c.33.15.7.293.724.708a1.118,1.118,0,0,1-.593.951.856.856,0,0,1-.241.115l-.2-1.891A2.244,2.244,0,0,1-135.243,475.627Zm-1.113-.019,0,0c.023-.016.045-.018.068-.031l.2,1.814a1.229,1.229,0,0,1-.911-.725C-137.161,476.1-136.769,475.838-136.355,475.608Zm-8.322,4.486a1.932,1.932,0,0,0,2.132-2,2.436,2.436,0,0,0-2.172-2.331,2.429,2.429,0,0,0-2.159,2.578.383.383,0,0,0,0,.045c0,.031,0,.065,0,.1A2,2,0,0,0-144.677,480.094Zm.248-3.166c.41-.089.844.455.846,1.108a.89.89,0,0,1-.077.342.985.985,0,0,1-.253.345,1.176,1.176,0,0,1-.3.2c-.019.009-.04.012-.059.021l-.215-1.994C-144.466,476.942-144.449,476.934-144.43,476.928Zm-1.057.446a2.562,2.562,0,0,1,.295-.159l.2,1.873a1.209,1.209,0,0,1-.609-.183A1.057,1.057,0,0,1-145.487,477.375Z" transform="translate(162.014 -426.166)"/>
</svg>
