<svg xmlns="http://www.w3.org/2000/svg" width="51.837" height="87.772" viewBox="0 0 51.837 87.772">
  <path id="Icono_azell" data-name="Icono azell" d="M166.659,94.145v0l.011,0Zm-.065-6.165a4.356,4.356,0,0,0-1.111-2.96,5.743,5.743,0,0,0-3.764-1.939l-.807-.1v-.685c0-1.791,0-3.582,0-5.373a5.223,5.223,0,0,0-5.683-5.026c-.035.117-.083.242-.111.371-.27,1.221-.53,2.444-.807,3.663a3.435,3.435,0,0,1-.237.565V78a2.28,2.28,0,0,1,.223.444,5.473,5.473,0,0,0,1.485,2.571A6.938,6.938,0,0,0,160,82.983c.28.032.561.062.869.1-.051.268-.087.474-.13.678-.254,1.186-.514,2.37-.765,3.557A5.07,5.07,0,0,0,161.1,91.8a6.644,6.644,0,0,0,3.98,2.287,3.052,3.052,0,0,0,1.581.061,6.205,6.205,0,0,1-.063-.619Q166.587,90.753,166.594,87.98Zm-2.1,19.922a5.794,5.794,0,0,0-.275-2.028,7.772,7.772,0,0,0-7.428-5.629c-.906-.006-1.811-.016-2.717-.024v.926a6.009,6.009,0,0,1,.228.641,7.649,7.649,0,0,0,5.594,5.954,15.632,15.632,0,0,0,4.485.235C164.412,107.976,164.443,107.937,164.495,107.9Zm1.477,17.73a.853.853,0,0,0-.055.156q-.582,4.063-1.16,8.127c-.495,3.472-.983,6.946-1.491,10.416a.827.827,0,0,0,.319.843q7.984,7.011,15.952,14.04c.127.112.263.212.506.405a46.509,46.509,0,0,0-5.837-23.358C172.114,132.468,167.334,126.315,165.971,125.632ZM198.6,92.207a5.128,5.128,0,0,0,1.5-4.918c-.1-.471-.205-.941-.306-1.412-.2-.917-.393-1.834-.6-2.8.3-.032.541-.06.786-.084a6.834,6.834,0,0,0,3.941-1.642,5.229,5.229,0,0,0,1.849-5.337q-.41-1.921-.832-3.839a2.148,2.148,0,0,0-.131-.326,5.888,5.888,0,0,0-3.876,1.337,4.56,4.56,0,0,0-1.771,3.727c.017,1.812,0,3.624,0,5.437v.62c-.537.083-1.019.129-1.486.235a5.057,5.057,0,0,0-4.2,5.242q0,2.458,0,4.916c0,.266-.023.531-.035.8a.9.9,0,0,0,.255.063A6.9,6.9,0,0,0,198.6,92.207Zm-5.161,1.95-.016,0,.016.013Zm-6.285,11.337a2.921,2.921,0,0,0-2.118,1.946,43.825,43.825,0,0,0-3.047,15.451c0,.187-.021.373-.032.548a19.66,19.66,0,0,1-3.87-.055c0-.122.006-.256,0-.388-.075-1.327-.112-2.657-.238-3.98a42.326,42.326,0,0,0-2.779-11.475,3.951,3.951,0,0,0-.4-.831,2.566,2.566,0,0,0-2.416-1.24,2.187,2.187,0,0,1,.125.237,49.938,49.938,0,0,1,3.738,17.651c.017.674.009,1.352.089,2.019a3.877,3.877,0,0,0,7.711-.637,51.8,51.8,0,0,1,.989-9.817,49.133,49.133,0,0,1,2.9-9.463A3.331,3.331,0,0,0,187.153,105.493ZM166.659,94.147h.007l0-.005Zm5.611,4.793a4.054,4.054,0,0,0-.854-2.415,5.674,5.674,0,0,0-3.738-2.213c-.336-.059-.673-.111-1.011-.164a1.12,1.12,0,0,0-.12.249c-.325,1.484-.681,2.963-.949,4.457a4.847,4.847,0,0,0,.036,1.718,5.663,5.663,0,0,0,3.065,3.976,7.855,7.855,0,0,0,3.538.9.875.875,0,0,0,.043-.206C172.278,103.144,172.285,101.042,172.269,98.94Zm-.034,6.512c0,.006,0,.012,0,.018h.025l-.009-.017Zm21.187-11.3,0,.017.013,0Zm-5.6,11.289-.008.02h.026c0-.007-.005-.014-.008-.02h-.01Zm6.069-9.395c-.145-.628-.306-1.252-.46-1.878-.145.022-.291.047-.438.061a6.1,6.1,0,0,0-3.654,1.539,4.194,4.194,0,0,0-1.513,3.012c-.052,2.189-.018,4.381-.018,6.571a.253.253,0,0,0,.026.088,7.2,7.2,0,0,0,4.5-1.52,5.282,5.282,0,0,0,2.065-5.565C194.23,97.584,194.063,96.814,193.887,96.046Zm9.347,4.2a7.771,7.771,0,0,0-7.518,6.189,3.355,3.355,0,0,0-.089,1.564c.867,0,1.714.015,2.56,0a7.568,7.568,0,0,0,6.829-4.116,6.9,6.9,0,0,0,.883-3.635C204.963,100.245,204.1,100.239,203.234,100.246ZM172.28,115.734a2.594,2.594,0,1,0-2.6,2.609A2.573,2.573,0,0,0,172.28,115.734Zm18.1-2.564a2.586,2.586,0,1,0,2.61,2.6A2.572,2.572,0,0,0,190.375,113.17Z" transform="translate(-154.074 -71.846)"/>
</svg>
