<svg xmlns="http://www.w3.org/2000/svg" width="71.683" height="72.916" viewBox="0 0 71.683 72.916">
  <path id="Icono_Vivac" data-name="Icono Vivac" d="M313.557-584.84c-2.582-1.032-5.737-.486-9.138,1.324-1.588-3.312-3.811-5.447-6.613-5.948-2.423-.41-5.049.47-7.692,2.481-2.113-2.406-4.5-3.786-7.055-3.786s-4.941,1.379-7.053,3.786c-2.644-2.011-5.271-2.89-7.689-2.482-2.743.492-4.985,2.571-6.6,5.968-3.413-1.823-6.576-2.377-9.157-1.344-3.931,1.584-5.8,6.573-5.249,14.051.532,7.292,3.279,16.15,7.727,24.95s10.08,16.5,15.856,21.675a27.552,27.552,0,0,0,8.174,5.31,6.618,6.618,0,0,0,.871.477,7.553,7.553,0,0,0,2.821.523c.053,0,.11-.013.162-.013.035,0,.071.009.106.009l.016,0,.014,0,.016,0,.019,0c.058,0,.116-.013.174-.015.033,0,.071.015.1.015a7.513,7.513,0,0,0,2.806-.519c.155-.062.286-.164.434-.237,7.726-2.763,17.32-13.09,24.473-27.225,4.448-8.8,7.189-17.663,7.722-24.95C319.353-578.267,317.487-583.255,313.557-584.84Zm-17-3.595a5.336,5.336,0,0,1,1,.089c2.407.43,4.346,2.4,5.746,5.479a38.834,38.834,0,0,0-7.7,6.367,32.344,32.344,0,0,0-4.739-9.588A9.636,9.636,0,0,1,296.561-588.435Zm7.388,37.253c-2.343,10.4-6.485,19.546-11.01,25.409,3.582-6.627,5.846-16.852,5.846-28.542a74.535,74.535,0,0,0-2.763-20.869,39.567,39.567,0,0,1,7.705-6.6c2.663,6.9,2.968,18.363.217,30.6Zm-23.275-28.985c.581.834,1.109,1.815,1.66,2.736a65.047,65.047,0,0,0-4.626,9.885,71.321,71.321,0,0,0-6.14-7.83,33.723,33.723,0,0,1,4.659-9.909A29.017,29.017,0,0,1,280.675-580.167Zm9.216-5.118a33.7,33.7,0,0,1,4.656,9.9,71.37,71.37,0,0,0-6.141,7.838,64.845,64.845,0,0,0-4.624-9.879c.552-.921,1.082-1.9,1.664-2.738A29.024,29.024,0,0,1,289.891-585.285Zm1.629,55.6c.009-.874-.019-1.787-.088-2.745-.53-7.258-3.26-16.069-7.671-24.829,1.354-2.648,2.8-5.162,4.307-7.521a84.387,84.387,0,0,1,2.439,8.531c2.1,9.333,2.547,18.373,1.259,25.452C291.694-530.405,291.6-530.055,291.52-529.682Zm-1.362-2.669c.3,4.088-.178,7.388-1.311,9.7a8.371,8.371,0,0,1-3.215,3.043,6.766,6.766,0,0,1-.749.289c-.127.042-.254.087-.383.119-.145.034-.288.058-.432.081-.168.03-.338.05-.508.065s-.352.029-.53.027c-.136,0-.269-.012-.4-.022a9.345,9.345,0,0,1-1.086-.178,5.556,5.556,0,0,1-.675-.214c-.1-.039-.209-.073-.313-.117a8.706,8.706,0,0,1-3.615-3.7c-2.657-6.385-.467-19.1,6.106-32.543C287.113-547.5,289.658-539.206,290.158-532.352Zm-15.581,2.336c-1.413-6.891-1.2-16.3,1.033-26.23a84.5,84.5,0,0,1,2.439-8.531c1.506,2.358,2.953,4.87,4.306,7.517C277.2-547.028,274.572-537.271,274.577-530.016Zm18.442-.6c1.314-7.212.866-16.394-1.259-25.856a84.929,84.929,0,0,0-2.831-9.629,73.7,73.7,0,0,1,6.04-7.922,73.932,73.932,0,0,1,2.542,19.7c0,10.788-2.1,20.631-5.337,27.171A31.733,31.733,0,0,0,293.019-530.612Zm-5.479-35.632c-1.561,2.384-3.062,4.943-4.482,7.649-1.418-2.706-2.921-5.263-4.483-7.647a66.057,66.057,0,0,1,4.484-10A66.148,66.148,0,0,1,287.539-566.244Zm-10.353.147a85.03,85.03,0,0,0-2.831,9.629c-2.654,11.828-2.594,22.535-.336,29.667-3.294-6.479-5.41-16.4-5.41-27.514a73.938,73.938,0,0,1,2.541-19.7A73.635,73.635,0,0,1,277.187-566.1Zm-9.851,11.782c0,11.719,2.275,21.961,5.872,28.587-4.541-5.858-8.693-15.023-11.031-25.454-2.1-9.333-2.547-18.373-1.259-25.456a27.614,27.614,0,0,1,1.443-5.166,39.56,39.56,0,0,1,7.737,6.624A74.515,74.515,0,0,0,267.336-554.315Zm15.722-35.318c2.157,0,4.214,1.26,6.074,3.437a29.675,29.675,0,0,0-4.771,5.431c-.456.655-.864,1.439-1.3,2.146-.438-.707-.847-1.491-1.3-2.146a29.521,29.521,0,0,0-4.768-5.43C278.845-588.372,280.9-589.633,283.058-589.633Zm-14.493,1.287a5.33,5.33,0,0,1,.995-.088,9.635,9.635,0,0,1,5.7,2.346,32.344,32.344,0,0,0-4.742,9.6,38.943,38.943,0,0,0-7.713-6.376C264.252-585.994,266.231-587.931,268.565-588.346ZM256.2-546.309c-4.393-8.676-7.095-17.4-7.617-24.555-.5-6.87,1.14-11.588,4.5-12.937a6.225,6.225,0,0,1,2.364-.44,12.463,12.463,0,0,1,5.816,1.79,28.427,28.427,0,0,0-1.6,5.63c-1.313,7.212-.866,16.4,1.259,25.86,2.581,11.487,7.068,21.121,12.052,26.986-.391-.325-.781-.633-1.176-.989C266.127-530.049,260.584-537.629,256.2-546.309Zm61.336-24.555c-.523,7.159-3.229,15.879-7.617,24.555-4.951,9.786-11.182,17.826-17,22.6,5.073-5.839,9.654-15.6,12.276-27.249,2.893-12.891,2.568-24.459-.321-31.5a12.442,12.442,0,0,1,5.789-1.776,6.225,6.225,0,0,1,2.363.44C316.4-582.452,318.039-577.735,317.537-570.865Z" transform="translate(-247.216 590.769)"/>
</svg>
