<svg xmlns="http://www.w3.org/2000/svg" width="71.337" height="93.755" viewBox="0 0 71.337 93.755">
  <path id="Icono" d="M2230.35,1001.5l-.44-1.405,2.342-2.12,1.35.582,1.146-1.035-6.321-2.548-1.106,1,1.877,6.567Zm.6-4.08-1.446,1.31-.671-2.2Zm5.625-.844-1.061-2.031,1.394-.724,2.558,1.251,1.584-.829-2.718-1.294a1.788,1.788,0,0,0,.481-2.318c-.776-1.486-2.071-1.054-3.113-.512l-3.1,1.618-.139.071,2.836,5.436Zm-2.256-4.323,1.809-.94c.857-.45,1.174-.447,1.414.009a.51.51,0,0,1,.006.6,2.188,2.188,0,0,1-.8.573l-1.809.943Zm8.5-3.422,1.1,4.718,1.405-.329-1.1-4.718,2.533-.592-.293-1.251-6.323,1.479-.151.037.292,1.247Zm11.451,3.828.016-1.282-4.179-.049.015-1.23,3.513.04.016-1.282-3.513-.043.012-1.045,4.083.047.012-1.282-5.372-.065h-.154l-.07,6.126,5.467.065Zm2.592-.883,3.066.758.271,1.442,1.5.37-1.423-6.666-1.446-.355-4.4,5.23,1.513.373Zm2.348-2.884.45,2.252-1.9-.468Zm5.631,7.35a3.664,3.664,0,0,0,2.132.478l-.08.552.833.453,1.608-2.946-3-1.636-.585,1.072,1.729.943a1.719,1.719,0,0,1-2-.068,2.1,2.1,0,0,1-1.032-1.113,1.885,1.885,0,0,1,.191-1.541,1.989,1.989,0,0,1,.946-.882,2.09,2.09,0,0,1,1.8.231c1.084.592,1.042,1.254,1.02,1.578l-.009.1,1.27.69.056-.175c.407-1.267-.28-2.53-1.837-3.377a3.423,3.423,0,0,0-2.773-.373,3.25,3.25,0,0,0-1.763,1.566C2262.216,993.855,2263.377,995.442,2264.838,996.24Zm3.225,1.579,1.134,1.063,1.368-.555,2.3,2.164-.471,1.393,1.128,1.06,2.028-6.511-1.088-1.021-6.167,2.318Zm5.966-.854-.711,2.185-1.424-1.338Zm-30.564-17.909h15.944l5.976-6.792-1.131-.241a16.137,16.137,0,0,1-11.242-8.786l-.918-1.889-.656-1.35-.657,1.35-.918,1.889a16.137,16.137,0,0,1-11.239,8.786l-1.134.241,5.9,6.709Zm8.669-14.564a17.565,17.565,0,0,0,10.73,8.586l-3.819,4.342-6.912-3.029Zm-.7,11.073,4.558,2h-9.116Zm-.7-11.073v9.9l-6.912,3.029-3.818-4.342A17.565,17.565,0,0,0,2250.74,964.493Zm.7,17.925a35.669,35.669,0,1,0,35.667,35.67A35.711,35.711,0,0,0,2251.437,982.417Zm0,69.8a34.131,34.131,0,1,1,34.129-34.129A34.167,34.167,0,0,1,2251.437,1052.216Zm27.581-44.789-.055-.145-1.437.558.059.142a28.022,28.022,0,1,1-52.293,0l.056-.142-1.436-.558-.055.145a29.563,29.563,0,1,0,55.162,0Zm-27.581-12.8a23.455,23.455,0,1,0,23.454,23.458A23.483,23.483,0,0,0,2251.437,994.63Zm0,45.371a21.915,21.915,0,1,1,21.914-21.913A21.941,21.941,0,0,1,2251.437,1040Zm.734-36.565-.043-.08h-7.208l3.17,5.615-8.074,18.364h-2.684v1.537h7.6v-1.537H2241.7l1.932-4.4h12.345l2.484,4.4h-2.256v1.537h10.672v-1.537h-1.208Zm-7.861,17.963,4.727-10.752,6.074,10.752Zm15.923,5.935-3.217-5.695v-.241h-.136l-9.325-16.5h3.673l12.678,22.437Z" transform="translate(-2215.767 -960)"/>
</svg>
