<svg xmlns="http://www.w3.org/2000/svg" width="141.351" height="22.773" viewBox="0 0 141.351 22.773">
  <path id="Kurgan_logo" data-name="Kurgan logo" d="M891.779,1958.517v-.22h-4.907l-11.1,11.606V1958.3H871.68v22.018h4.089v-5.032l4.593-4.812,7.171,9.845h4.53v-.22l-8.964-12.487Zm18.808,12.927c0,3.712-2.359,5.347-5.787,5.347-3.461,0-5.851-1.635-5.851-5.347V1958.3h-4.089v13.147c0,6.416,4.466,9.248,9.908,9.248s9.908-2.832,9.908-9.248V1958.3h-4.089Zm28.465-6.134c0-4.151-3.27-7.014-7.455-7.014H919.867v22.018h4.089v-8.02h6.605l5.41,8.02h4.341v-.22l-5.662-8.336A6.73,6.73,0,0,0,939.053,1965.311Zm-7.8,3.366h-7.3v-6.638h7.3c2.108,0,3.711,1.259,3.711,3.335C934.964,1967.418,933.36,1968.677,931.253,1968.677Zm23.37,2.957h6.007v3.208a8.994,8.994,0,0,1-6.039,2.076c-5.253,0-8.02-3.366-8.02-7.581a7.23,7.23,0,0,1,7.643-7.58c3.239,0,5.347,1.541,6.322,3.681l3.491-1.887c-1.636-3.4-5.253-5.63-9.876-5.63-7.172,0-11.7,5.158-11.7,11.449,0,6.134,4.4,11.323,12.141,11.323a12.855,12.855,0,0,0,9.782-4.089v-8.493h-9.75ZM975.7,1958.3l-9.782,21.735v.284h4.34l1.888-4.341h11.166l1.856,4.341H989.5v-.284l-9.75-21.735Zm-1.982,14,4-9.311,4.026,9.311Zm35.228-14v15.319L996.517,1958.3H992.9v22.018h4.089V1965l12.425,15.319h3.617V1958.3Z" transform="translate(-871.68 -1957.92)"/>
</svg>
