<svg xmlns="http://www.w3.org/2000/svg" width="118.64" height="31.991" viewBox="0 0 118.64 31.991">
  <path id="Logo_volk" data-name="Logo volk" d="M2541.819-401.886v-.216h-7.868v.216a2.925,2.925,0,0,1,2.335,2.983,5.752,5.752,0,0,1-.562,2.377l-5.448,12.148-5.619-12.148a5.684,5.684,0,0,1-.606-2.377c0-1.686.951-2.681,2.811-2.983v-.216h-16.428v.216a3.8,3.8,0,0,1,1.815.995,9.61,9.61,0,0,1,2.162,3.588l11.585,25.9h.172L2537.5-396.7a18.8,18.8,0,0,1,2.032-3.718A4.5,4.5,0,0,1,2541.819-401.886Zm12.973-1.081c-4.884,0-8.775,1.47-11.758,4.41s-4.453,6.787-4.453,11.586,1.471,8.647,4.453,11.586,6.874,4.41,11.758,4.41,8.777-1.47,11.76-4.41,4.453-6.787,4.453-11.586-1.471-8.646-4.453-11.586S2559.678-402.967,2554.792-402.967Zm4.627,26.76c-1,2.291-2.507,3.415-4.627,3.415s-3.631-1.124-4.582-3.415c-.995-2.248-1.47-5.836-1.47-10.765s.475-8.516,1.47-10.807c.951-2.248,2.464-3.372,4.582-3.372s3.632,1.124,4.627,3.372c.951,2.291,1.426,5.879,1.426,10.807S2560.369-378.455,2559.418-376.206Zm67.665,2.853a25.164,25.164,0,0,1-2.42-3.372l-9.9-15.822,4.452-4.41s1.254-1.124,1.3-1.168.26-.259.6-.562a15.947,15.947,0,0,1,1.382-1.124,14.7,14.7,0,0,1,1.514-.951,9.249,9.249,0,0,1,2.68-1.124v-.216h-12.71v.216q3.761.454,3.762,2.983c0,1.21-.692,2.075-2.378,3.761l-8.128,7.955,9.3,15.347h12.538v-.216A4.683,4.683,0,0,1,2627.083-373.354Zm-43.711.216h-.085V-397.39a4.418,4.418,0,0,1,2.767-4.5v-.216h-14.612v.216c1.945.821,2.767,1.73,2.767,4.5v20.664c0,2.81-.865,3.934-2.767,4.669v.216h21.7l1.383-13.186h-.3C2592.278-377.763,2588.215-373.138,2583.373-373.138Zm26.634-28.749v-.216H2595.4v.216c1.945.821,2.767,1.73,2.767,4.5v20.664c0,2.81-.866,3.934-2.767,4.669v.216h14.611v-.216a4.907,4.907,0,0,1-2.767-4.669V-397.39A4.42,4.42,0,0,1,2610.006-401.886Z" transform="translate(-2510.433 402.967)"/>
</svg>
