<svg xmlns="http://www.w3.org/2000/svg" width="141.841" height="54.454" viewBox="0 0 141.841 54.454">
  <path id="Real" d="M2073.809,1213.894l-8.4,17.143v.011h3.542l1.809-3.942h9.843l1.785,3.942h3.524l-8.293-17.155Zm-1.667,10.333,3.571-7.643,3.569,7.643Zm62.726-20.241c0-2.787-1.948-3.818-4.384-3.818h-3.7v7.732h3.769C2133.089,1207.9,2134.867,1206.622,2134.867,1203.986Zm-6.585,2.615v-5.136h1.524c2.52,0,3.558.648,3.558,2.542,0,1.808-1,2.594-3.558,2.594Zm17.459-5.137v-1.3h-6.9v7.732h7.031v-1.3h-5.528v-2.042h4.649v-1.3h-4.649v-1.8Zm-28.981,1.905h-18.312v1.328h18.312Zm39.127,1.328H2174.2v-1.328h-18.312Zm18.312-13.5h-12.38v-14.181h-3.335v17.153H2174.2Zm-68.867,27.815c0-4.2-2.913-5.12-6.954-5.12h-10.265v17.155h3.336V1224.3h5.284l4.957,6.749h4.111l-5.238-6.985A4.845,4.845,0,0,0,2105.332,1219.014Zm-13.883,2.5v-4.836h6.436c2.725,0,4.111.4,4.111,2.406,0,2.03-1.386,2.43-4.111,2.43Zm15.993-4.742h7.635v14.275h3.336v-14.275h7.635V1213.9h-18.606Zm24.429,6.865h10.312v-2.877h-10.312v-3.989h11.979v-2.878h-15.315v17.153h15.6v-2.877h-12.262Zm21.514-9.743-8.408,17.152h3.546l1.809-3.941h9.843l1.785,3.941h3.524l-8.292-17.152Zm-1.666,10.333,3.569-7.645,3.572,7.645Zm24.475.708h5.989c-.8,2.406-2.629,3.561-5.918,3.561-3.618,0-6.342-2.075-6.342-6.133,0-2.383,1.267-6.018,6.622-6.018,3.924,0,4.839,2.028,5.239,2.9h3.407c-.823-4.318-5.122-5.781-9.044-5.781-6.813,0-9.56,4.458-9.56,9.036,0,6.817,5.284,8.966,9.654,8.966a10.472,10.472,0,0,0,6.389-2.006l.657,1.77h2.021v-8.989h-9.115Zm22.759-11.042h-3.805l-8.41,17.152h3.547l1.809-3.941h9.841l1.786,3.941h3.524Zm-5.473,10.333,3.571-7.645,3.569,7.645Zm-91.7-36.8h5.284l4.957,6.748h4.111l-5.237-6.985a4.846,4.846,0,0,0,4.768-5.049c0-4.2-2.914-5.12-6.955-5.12h-10.264v17.155h3.336Zm0-7.622h6.436c2.726,0,4.111.4,4.111,2.406,0,2.03-1.385,2.43-4.111,2.43h-6.436Zm33.143,11.491h-12.262v-4.531h10.312v-2.878h-10.312V1179.9h11.98v-2.88h-15.316v17.153h15.6Zm6.2-1.061h9.843l1.786,3.94h3.525l-8.293-17.155h-3.807l-8.408,17.155h3.546Zm4.957-10.525,3.571,7.645h-7.141Z" transform="translate(-2065.405 -1177.018)"/>
</svg>
