<svg xmlns="http://www.w3.org/2000/svg" width="70.474" height="74.887" viewBox="0 0 70.474 74.887">
  <path id="Sheltec_icon" data-name="Sheltec icon" d="M1226.837,523.167l-.072.016a8.028,8.028,0,0,1,0-16.056,10.152,10.152,0,1,0-10.152-10.152v.261a7.845,7.845,0,0,1-7.845,7.845l-.026.035a10.135,10.135,0,1,0,0,20.27,8.028,8.028,0,0,1,0,16.053,10.135,10.135,0,1,0,0,20.27,10.3,10.3,0,0,0,10.135-10.135,7.8,7.8,0,0,1,7.959-7.961,10.223,10.223,0,0,0,10.223-10.223C1237.061,527.744,1232.476,523.465,1226.837,523.167ZM1202.1,533.39a10.224,10.224,0,1,0-10.224,10.223A10.224,10.224,0,0,0,1202.1,533.39Zm39.8-28.225a10.223,10.223,0,1,0,10.224,10.223A10.223,10.223,0,0,0,1241.9,505.165Z" transform="translate(-1181.652 -486.823)"/>
</svg>
