<svg xmlns="http://www.w3.org/2000/svg" width="138.114" height="17.837" viewBox="0 0 138.114 17.837" fill="#FFF">
  <path id="Sheltec_logo" data-name="Sheltec logo" d="M1576.913,546.334a2.32,2.32,0,0,0-1.834-.694h-13.656a5.3,5.3,0,0,0-3.518,1.177,6.366,6.366,0,0,0-1.991,2.886l-3.343,9.711a2.683,2.683,0,0,0,.438,2.886,4.014,4.014,0,0,0,3.157,1.177h12.74a4.277,4.277,0,0,0,2.321-.694,3.29,3.29,0,0,0,1.441-1.685l1.368-3.988h-5.988l-.647,1.858a.274.274,0,0,1-.3.2h-8.065c-.265,0-.366-.107-.3-.322l2.431-7.028-2.054-1.86h3.059c.018,0,.034-.006.053-.006h8.066q.244,0,.157.2l-.616,1.858h5.988l1.367-3.988A1.593,1.593,0,0,0,1576.913,546.334Zm-95.682-.694-2.323,6.689h-8.829l2.323-6.689h-5.988l-6.174,17.837h5.988l1.782-5.169-1.84-1.666h2.414v0h8.829l-2.357,6.838h5.988l6.174-17.837Zm21.207,10.727,1.25-3.617H1492.72l.364-1.054-1.92-1.739h2.522l0-.006h12.343l1.493-4.311h-16.268a2.793,2.793,0,0,0-2.68,1.783l-4.413,12.75a2.6,2.6,0,0,0,2.68,3.3h14.507l1.493-4.31H1490.5l.5-1.456-1.485-1.345h12.917Zm-42.444-2.613a4.016,4.016,0,0,0-3.158-1.177h-8.676q-.4,0-.3-.322l.215-.621-1.852-1.677h2.794c.018,0,.033-.006.053-.006h7.3q.4,0,.271.322l-.339,1.016h5.988l.543-1.586a2.747,2.747,0,0,0-.453-2.886,3.967,3.967,0,0,0-3.143-1.177h-10.662a6.09,6.09,0,0,0-5.815,4.063l-.942,2.775a2.683,2.683,0,0,0,.438,2.886,4.013,4.013,0,0,0,3.157,1.177h8.676q.4,0,.271.322l-.686,1.982a.452.452,0,0,1-.493.322h-7.3q-.4,0-.3-.322l.369-1.016h-5.988l-.542,1.586a2.683,2.683,0,0,0,.438,2.886,4.013,4.013,0,0,0,3.157,1.177h10.815a5.548,5.548,0,0,0,3.579-1.177,6.41,6.41,0,0,0,2.083-2.886l.942-2.775A2.684,2.684,0,0,0,1459.994,553.753Zm90.724,2.613,1.25-3.617H1541l.365-1.054-1.921-1.739h2.522l0-.006h12.343l1.493-4.311h-16.267a3.026,3.026,0,0,0-1.42.351l.121-.351h-20.774l-1.494,4.311h7.393l-3.188,9.216h-8.866l4.68-13.527H1510l-6.174,17.837h20.844l4.015-11.6-2.115-1.916h2.778l0-.006h6.63l-3.538,10.222a2.6,2.6,0,0,0,2.68,3.3h14.507l1.493-4.31h-12.343l.5-1.456-1.485-1.345h12.917Z" transform="translate(-1439.192 -545.64)"/>
</svg>
