<svg xmlns="http://www.w3.org/2000/svg" width="108.11" height="46.103" viewBox="0 0 108.11 46.103">
  <path id="Tarky" d="M3672.855,1004.144a1.981,1.981,0,0,1-1.594.725c-.871,0-1.209-.58-1.209-1.885V989.743c0-6.088-3.671-7.635-8.215-7.635-6.282,0-10.776,3.189-12.322,7.828l.241.243h6.378l.048-6.041a5.381,5.381,0,0,1,2.852-.774c2.224,0,3.721,1.064,3.721,5.074v7.153l-7.539,1.4c-4.2.821-6.331,3.044-6.331,6.186a5.637,5.637,0,0,0,.095,1.042,4.463,4.463,0,0,1-2.415.7c-2.174,0-3.141-1.256-3.141-3.914V984.814h6.186l.242-2.368-.242-.194-6.186.629v-5.9l-.338-.145-9.327,7.346v.338h2.367v16.915c0,4.639,2.176,6.91,6.477,6.91a8.306,8.306,0,0,0,6.621-3.264c.751,1.949,2.747,3.264,5.944,3.264a8.509,8.509,0,0,0,7.394-4.639h.193c0,3.237,2.174,4.639,4.832,4.639,2.513,0,4.3-1.111,5.51-4.011Zm-10.1-1.3a4.959,4.959,0,0,1-3.866,1.885,3.049,3.049,0,0,1-3.334-3.334c0-2.272,1.111-3.479,3.915-4.35l3.286-.918Zm19.815,2.948v-14.3a8.945,8.945,0,0,1,1.837-2.368h6.572l.193-.193v-6.476h-.773c-3.915,0-6.09,3.383-7.588,7.828h-.241v-7.828l-.29-.194-9.52,2.369v.29l2.562,1.4v19.572c0,.822-.29,1.015-1.305,1.3l-1.354.29v.434h13.677v-.434l-2.754-.435C3682.812,1006.9,3682.571,1006.609,3682.571,1005.788Zm51.422-23.245v.434c3.142.629,3.529,1.547,2.853,3.432l-5.124,14.014h-.241l-5.654-14.643c-.677-1.739-.146-2.271,2.9-2.8v-.434h-21.6v.483c3.624.29,4.107,1.885,2.608,3.238l-9.472,8.553V972.249l-.29-.193-9.762,2.368v.29l2.754,1.353v29.818c0,.87-.241,1.015-1.3,1.3l-1.353.29v.434h12.468v-.434l-1.547-.339c-.773-.193-.966-.387-.966-1.256V995.4h.966l8.8,12.516h8.457v-.434l-12.129-17.349,5.171-3.818a22.469,22.469,0,0,1,4.69-2.8,2.827,2.827,0,0,1,.822,1.107l10.2,23.777-8.94,9.375v.386h6.476l4.349-10.2,9.617-21.409c1.015-2.222,1.691-3.092,3.141-3.576v-.434Z" transform="translate(-3633.761 -972.056)"/>
</svg>
