<svg xmlns="http://www.w3.org/2000/svg" width="75.279" height="75.727" viewBox="0 0 75.279 75.727">
  <g id="U" transform="translate(0 0)">
    <g id="Group_208" data-name="Group 208">
      <path id="Path_71" data-name="Path 71" d="M1181.459,1193.812l-13.827-47.7-.078-.292-5.815-3.15v46.983l-17.676,21.957-17.658-21.937V1142.7l-6.087,3.111-13.632,48-.252.874.661.526,30.045,23.181,6.923-4.746,6.923,4.746,30.045-23.181.681-.526Zm-59.9-46.983,3.383-1.75v44.241l-16.627,4.083Zm15.635,69.756-28.3-21.82,16.49-4.045,17.619,21.9Zm26-71.467,3.131,1.692,13.5,46.594-16.628-4.064Zm-12.251,71.487-5.815-3.987,17.619-21.9,16.472,4.045Z" transform="translate(-1106.434 -1142.666)" fill="#0f1011"/>
    </g>
  </g>
</svg>
