<svg xmlns="http://www.w3.org/2000/svg" width="116.269" height="36.279" viewBox="0 0 116.269 36.279">
  <path id="Urbk" d="M1265.813,1171.63c0,7.6-5.088,13.333-12.139,13.333-7.076,0-12.184-5.732-12.184-13.333v-19.587h-2.761v19.587c0,9.175,6.425,16.094,14.944,16.094,8.494,0,14.9-6.919,14.9-16.094v-19.587h-2.76Zm19.327-10.21a7.83,7.83,0,0,0-7.747,4.923v-4.324h-2.612v25.7h2.661V1175.97c0-5.4,1.327-11.838,7.648-11.838a11.737,11.737,0,0,1,2.365.292l.461.1v-2.84l-.32-.054A14.913,14.913,0,0,0,1285.14,1161.421Zm20.146,0c-4.638,0-8.464,2.017-10.391,5.367v-14.744h-2.661v35.681h2.661v-4.69c1.886,3.263,5.771,5.288,10.391,5.288,7.391,0,12.553-5.532,12.553-13.451S1312.678,1161.421,1305.287,1161.421Zm-.3,24.391c-6.095,0-10.191-4.4-10.191-10.939s4.1-10.939,10.191-10.939c5.942,0,10.092,4.5,10.092,10.939S1310.929,1185.811,1304.987,1185.811Zm37.443-23.792h-3.776l-14.121,14.361v-24.337h-2.661v35.681h2.661v-7.756l4.821-4.821,9.973,12.577h3.479L1331.2,1173.3Zm8.477-9.976a4.07,4.07,0,0,0-4.091,4.091,4.091,4.091,0,1,0,4.091-4.091Zm0,7.482a3.41,3.41,0,1,1,3.354-3.409A3.263,3.263,0,0,1,1350.907,1159.526Zm1.567-4.239v-.018c0-.829-.608-1.216-1.548-1.216h-1.419v4.036h.884v-1.566h.424l.976,1.566h.922l-1.069-1.714A1.066,1.066,0,0,0,1352.474,1155.287Zm-.866.038c0,.387-.239.589-.7.589h-.516v-1.179h.516c.442,0,.7.147.7.572Z" transform="translate(-1238.73 -1152.044)" fill="#0f1011"/>
</svg>
