<svg xmlns="http://www.w3.org/2000/svg" width="145.719" height="24.19" viewBox="0 0 145.719 24.19">
  <g id="Vivac" transform="translate(0 0)">
    <path id="Path_86" data-name="Path 86" d="M603.408-460.77,593.833-483.8h5.583l6.955,17.933,6.987-17.933h5.4l-9.575,23.029Z" transform="translate(-593.833 484.379)"/>
    <path id="Path_87" data-name="Path 87" d="M727.483-460.77V-483.8h4.991v23.029Z" transform="translate(-690.367 484.379)"/>
    <path id="Path_88" data-name="Path 88" d="M798.943-460.77,789.367-483.8h5.583l6.955,17.933,6.987-17.933h5.4l-9.575,23.029Z" transform="translate(-735.065 484.379)"/>
    <path id="Path_89" data-name="Path 89" d="M923.011-460.77,920.8-466H909.569l-2.184,5.225h-5.146l10.2-23.029h5.645l10.2,23.029Zm-7.829-18.545-3.93,9.224h7.86Z" transform="translate(-816.591 484.379)"/>
    <path id="Path_90" data-name="Path 90" d="M1056.085-470.177a8.869,8.869,0,0,1-3.571,6.322,13.29,13.29,0,0,1-8.031,2.226,14.338,14.338,0,0,1-6.55-1.419,10.042,10.042,0,0,1-4.335-4.161,13.172,13.172,0,0,1-1.529-6.515,12.991,12.991,0,0,1,1.482-6.305,10.478,10.478,0,0,1,4.288-4.258,13.6,13.6,0,0,1,6.613-1.531q9.263,0,11.259,7.9l-4.959.613a6.213,6.213,0,0,0-2.261-3.29,7.14,7.14,0,0,0-4.039-1,6.818,6.818,0,0,0-5.271,2.1,8.188,8.188,0,0,0-1.934,5.773,8.178,8.178,0,0,0,1.934,5.789,6.964,6.964,0,0,0,5.365,2.08,7.776,7.776,0,0,0,4.366-1.064,5.2,5.2,0,0,0,2.121-3.258Z" transform="translate(-910.366 485.819)"/>
  </g>
</svg>
