<svg xmlns="http://www.w3.org/2000/svg" width="127.758" height="17.339" viewBox="0 0 127.758 17.339">
  <path id="Xride_logo" data-name="Xride logo" d="M500.866-147.392h-4.335l-3.666,5.623-3.641-5.623h-4.459l5.8,8.521-6.044,8.818h4.335L492.766-136l3.889,5.944h4.458l-6.043-8.868Zm28.918,9.2a5.439,5.439,0,0,0,1.028-3.43v-.05a5.354,5.354,0,0,0-1.487-3.963,6.838,6.838,0,0,0-5.053-1.759h-7.926v17.339h3.815V-135.6h3l3.716,5.548h4.458l-4.236-6.192A5.96,5.96,0,0,0,529.783-138.19Zm-2.836-3.233a2.264,2.264,0,0,1-.756,1.783,3.166,3.166,0,0,1-2.167.669h-3.864v-4.979h3.789a3.5,3.5,0,0,1,2.2.619,2.213,2.213,0,0,1,.793,1.857Zm19.864,11.369h3.814v-17.339h-3.814Zm33.946-14.861a8.8,8.8,0,0,0-2.923-1.821,10.262,10.262,0,0,0-3.728-.657h-6.762v17.339h6.762a10.091,10.091,0,0,0,3.728-.669,8.95,8.95,0,0,0,2.923-1.833,8.059,8.059,0,0,0,1.895-2.749,8.7,8.7,0,0,0,.669-3.418v-.05a8.611,8.611,0,0,0-.669-3.406A8.1,8.1,0,0,0,580.757-144.915Zm-1.424,6.241a5.53,5.53,0,0,1-.384,2.106,5,5,0,0,1-1.065,1.635,4.587,4.587,0,0,1-1.647,1.065,5.9,5.9,0,0,1-2.131.371H571.16v-10.452h2.947a5.723,5.723,0,0,1,2.131.384,4.73,4.73,0,0,1,1.647,1.077,4.939,4.939,0,0,1,1.065,1.659,5.651,5.651,0,0,1,.384,2.106Zm23.531,5.227v-3.641h8.173v-3.393h-8.173V-144h9.288v-3.393H599.1v17.339h13.177v-3.393Z" transform="translate(-484.518 147.392)"/>
</svg>
