<svg xmlns="http://www.w3.org/2000/svg" xmlns:xlink="http://www.w3.org/1999/xlink" width="428.899" height="428.899" viewBox="0 0 428.899 428.899">
  <defs>
    <clipPath id="clip-path">
      <path id="Path_3" data-name="Path 3" d="M1.509,214.45C1.509,97.034,97.034,1.509,214.448,1.509S427.391,97.034,427.391,214.45,331.866,427.391,214.448,427.391,1.509,331.866,1.509,214.45M214.448,0C96.2,0,0,96.2,0,214.45S96.2,428.9,214.448,428.9,428.9,332.7,428.9,214.45,332.7,0,214.448,0Z" transform="translate(0 0)" fill="none"/>
    </clipPath>
    <linearGradient id="linear-gradient" y1="1" x2="1" gradientUnits="objectBoundingBox">
      <stop offset="0" stop-color="#14387a"/>
      <stop offset="0.145" stop-color="#025af5"/>
      <stop offset="0.299" stop-color="#4f49fb"/>
      <stop offset="0.434" stop-color="#c5d2ff"/>
      <stop offset="0.577" stop-color="#4fc4ff"/>
      <stop offset="0.854" stop-color="#000fff"/>
      <stop offset="1" stop-color="#00338a"/>
    </linearGradient>
    <clipPath id="clip-path-2">
      <path id="Path_4" data-name="Path 4" d="M8.359,210.92C8.359,99.228,99.226,8.359,210.918,8.359S413.481,99.228,413.481,210.92,322.61,413.481,210.918,413.481,8.359,322.612,8.359,210.92m-1.509,0c0,112.525,91.543,204.07,204.068,204.07S414.99,323.445,414.99,210.92,323.445,6.85,210.918,6.85,6.85,98.395,6.85,210.92" transform="translate(-6.85 -6.85)" fill="none"/>
    </clipPath>
    <linearGradient id="linear-gradient-2" x1="0" y1="1.009" x2="1" y2="0" xlink:href="#linear-gradient"/>
    <clipPath id="clip-path-3">
      <path id="Path_5" data-name="Path 5" d="M15.21,207.389c0-105.968,86.21-192.18,192.18-192.18s192.181,86.212,192.181,192.18S313.358,399.571,207.39,399.571,15.21,313.359,15.21,207.389m-1.51,0c0,106.8,86.889,193.69,193.69,193.69s193.69-86.889,193.69-193.69S314.191,13.7,207.39,13.7,13.7,100.59,13.7,207.389" transform="translate(-13.7 -13.701)" fill="none"/>
    </clipPath>
    <clipPath id="clip-path-4">
      <path id="Path_6" data-name="Path 6" d="M22.06,203.861c0-100.247,81.554-181.8,181.8-181.8s181.8,81.554,181.8,181.8-81.554,181.8-181.8,181.8-181.8-81.556-181.8-181.8m-1.509,0c0,101.075,82.23,183.309,183.307,183.309s183.31-82.233,183.31-183.309-82.232-183.31-183.31-183.31S20.551,102.783,20.551,203.861" transform="translate(-20.551 -20.551)" fill="none"/>
    </clipPath>
    <clipPath id="clip-path-5">
      <path id="Path_7" data-name="Path 7" d="M28.909,200.33c0-94.522,76.9-171.42,171.423-171.42s171.419,76.9,171.419,171.42-76.9,171.422-171.419,171.422S28.909,294.853,28.909,200.33m-1.509,0c0,95.354,77.576,172.93,172.932,172.93s172.927-77.576,172.927-172.93S295.683,27.4,200.332,27.4,27.4,104.975,27.4,200.33" transform="translate(-27.4 -27.401)" fill="none"/>
    </clipPath>
    <clipPath id="clip-path-6">
      <path id="Path_8" data-name="Path 8" d="M35.76,196.8C35.76,108,108,35.758,196.8,35.758S357.84,108,357.84,196.8,285.6,357.842,196.8,357.842,35.76,285.6,35.76,196.8m-1.509,0c0,89.63,72.919,162.55,162.549,162.55S359.35,286.43,359.35,196.8,286.43,34.251,196.8,34.251,34.251,107.17,34.251,196.8" transform="translate(-34.251 -34.251)" fill="none"/>
    </clipPath>
    <clipPath id="clip-path-7">
      <path id="Path_9" data-name="Path 9" d="M42.609,193.27c0-83.074,67.588-150.66,150.662-150.66s150.66,67.587,150.66,150.66-67.587,150.662-150.66,150.662S42.609,276.345,42.609,193.27m-1.509,0c0,83.906,68.264,152.171,152.171,152.171s152.17-68.264,152.17-152.171S277.177,41.1,193.271,41.1,41.1,109.365,41.1,193.27" transform="translate(-41.1 -41.101)" fill="none"/>
    </clipPath>
    <clipPath id="clip-path-8">
      <path id="Path_10" data-name="Path 10" d="M49.46,189.742c0-77.351,62.929-140.282,140.282-140.282s140.279,62.931,140.279,140.282-62.929,140.28-140.279,140.28S49.46,267.091,49.46,189.742m-1.509,0c0,78.182,63.608,141.789,141.791,141.789s141.788-63.607,141.788-141.789S267.924,47.951,189.742,47.951,47.951,111.558,47.951,189.742" transform="translate(-47.951 -47.951)" fill="none"/>
    </clipPath>
    <clipPath id="clip-path-9">
      <path id="Path_11" data-name="Path 11" d="M56.311,186.211a129.9,129.9,0,1,1,129.9,129.9,130.047,130.047,0,0,1-129.9-129.9m-1.509,0c0,72.46,58.949,131.408,131.408,131.408s131.411-58.948,131.411-131.408S258.671,54.8,186.21,54.8,54.8,113.751,54.8,186.211" transform="translate(-54.802 -54.802)" fill="none"/>
    </clipPath>
    <clipPath id="clip-path-10">
      <path id="Path_12" data-name="Path 12" d="M63.161,182.681A119.521,119.521,0,1,1,182.681,302.2,119.655,119.655,0,0,1,63.161,182.681m-1.509,0A121.029,121.029,0,1,0,182.681,61.652,121.166,121.166,0,0,0,61.652,182.681" transform="translate(-61.652 -61.652)" fill="none"/>
    </clipPath>
    <clipPath id="clip-path-11">
      <path id="Path_13" data-name="Path 13" d="M70.011,179.151A109.141,109.141,0,1,1,179.152,288.29,109.264,109.264,0,0,1,70.011,179.151m-1.509,0A110.65,110.65,0,1,0,179.152,68.5,110.775,110.775,0,0,0,68.5,179.151" transform="translate(-68.502 -68.503)" fill="none"/>
    </clipPath>
    <clipPath id="clip-path-12">
      <path id="Path_14" data-name="Path 14" d="M76.86,175.621a98.761,98.761,0,1,1,98.76,98.761,98.873,98.873,0,0,1-98.76-98.761m-1.507,0A100.268,100.268,0,1,0,175.62,75.353,100.382,100.382,0,0,0,75.353,175.621" transform="translate(-75.353 -75.353)" fill="none"/>
    </clipPath>
    <clipPath id="clip-path-13">
      <path id="Path_15" data-name="Path 15" d="M83.711,172.091a88.38,88.38,0,1,1,88.381,88.38,88.482,88.482,0,0,1-88.381-88.38m-1.509,0A89.889,89.889,0,1,0,172.092,82.2,89.991,89.991,0,0,0,82.2,172.091" transform="translate(-82.202 -82.203)" fill="none"/>
    </clipPath>
    <clipPath id="clip-path-14">
      <path id="Path_16" data-name="Path 16" d="M90.562,168.562a78,78,0,1,1,78,78,78.087,78.087,0,0,1-78-78m-1.51,0a79.509,79.509,0,1,0,79.51-79.508,79.6,79.6,0,0,0-79.51,79.508" transform="translate(-89.052 -89.053)" fill="none"/>
    </clipPath>
    <clipPath id="clip-path-15">
      <path id="Path_17" data-name="Path 17" d="M97.412,165.032a67.62,67.62,0,1,1,67.62,67.62,67.7,67.7,0,0,1-67.62-67.62m-1.509,0A69.129,69.129,0,1,0,165.032,95.9,69.206,69.206,0,0,0,95.9,165.032" transform="translate(-95.903 -95.903)" fill="none"/>
    </clipPath>
    <clipPath id="clip-path-16">
      <path id="Path_18" data-name="Path 18" d="M104.262,161.5a57.24,57.24,0,1,1,57.24,57.242,57.305,57.305,0,0,1-57.24-57.242m-1.509,0A58.749,58.749,0,1,0,161.5,102.753,58.817,58.817,0,0,0,102.753,161.5" transform="translate(-102.753 -102.753)" fill="none"/>
    </clipPath>
    <clipPath id="clip-path-17">
      <path id="Path_19" data-name="Path 19" d="M111.113,157.973a46.859,46.859,0,1,1,46.859,46.86,46.914,46.914,0,0,1-46.859-46.86m-1.509,0a48.368,48.368,0,1,0,48.367-48.37,48.422,48.422,0,0,0-48.367,48.37" transform="translate(-109.604 -109.603)" fill="none"/>
    </clipPath>
  </defs>
  <g id="Aros" opacity="0.392">
    <g id="Group_8" data-name="Group 8">
      <g id="Group_7" data-name="Group 7" clip-path="url(#clip-path)">
        <rect id="Rectangle_4" data-name="Rectangle 4" width="585.887" height="585.887" transform="translate(-78.494 -78.494)" fill="url(#linear-gradient)"/>
      </g>
    </g>
    <g id="Group_10" data-name="Group 10" transform="translate(10.335 10.335)">
      <g id="Group_9" data-name="Group 9" clip-path="url(#clip-path-2)">
        <rect id="Rectangle_5" data-name="Rectangle 5" width="557.529" height="557.529" transform="translate(-74.695 -74.695)" fill="url(#linear-gradient-2)"/>
      </g>
    </g>
    <g id="Group_12" data-name="Group 12" transform="translate(20.669 20.671)">
      <g id="Group_11" data-name="Group 11" clip-path="url(#clip-path-3)">
        <rect id="Rectangle_6" data-name="Rectangle 6" width="529.17" height="529.169" transform="translate(-70.895 -70.896)" fill="url(#linear-gradient)"/>
      </g>
    </g>
    <g id="Group_14" data-name="Group 14" transform="translate(31.005 31.005)">
      <g id="Group_13" data-name="Group 13" clip-path="url(#clip-path-4)">
        <rect id="Rectangle_7" data-name="Rectangle 7" width="500.809" height="500.81" transform="translate(-67.096 -67.095)" fill="url(#linear-gradient)"/>
      </g>
    </g>
    <g id="Group_16" data-name="Group 16" transform="translate(41.338 41.34)">
      <g id="Group_15" data-name="Group 15" clip-path="url(#clip-path-5)">
        <rect id="Rectangle_8" data-name="Rectangle 8" width="472.452" height="472.452" transform="translate(-63.297 -63.297)" fill="url(#linear-gradient)"/>
      </g>
    </g>
    <g id="Group_18" data-name="Group 18" transform="translate(51.674 51.675)">
      <g id="Group_17" data-name="Group 17" clip-path="url(#clip-path-6)">
        <rect id="Rectangle_9" data-name="Rectangle 9" width="444.094" height="444.094" transform="translate(-59.497 -59.497)" fill="url(#linear-gradient)"/>
      </g>
    </g>
    <g id="Group_20" data-name="Group 20" transform="translate(62.008 62.009)">
      <g id="Group_19" data-name="Group 19" clip-path="url(#clip-path-7)">
        <rect id="Rectangle_10" data-name="Rectangle 10" width="415" height="415" transform="translate(-55.108 -55.11)" fill="url(#linear-gradient)"/>
      </g>
    </g>
    <g id="Group_22" data-name="Group 22" transform="translate(72.344 72.344)">
      <g id="Group_21" data-name="Group 21" clip-path="url(#clip-path-8)">
        <rect id="Rectangle_11" data-name="Rectangle 11" width="387.376" height="387.376" transform="translate(-51.899 -51.898)" fill="url(#linear-gradient)"/>
      </g>
    </g>
    <g id="Group_24" data-name="Group 24" transform="translate(82.68 82.68)">
      <g id="Group_23" data-name="Group 23" clip-path="url(#clip-path-9)">
        <rect id="Rectangle_12" data-name="Rectangle 12" width="359.016" height="359.016" transform="translate(-48.099 -48.099)" fill="url(#linear-gradient)"/>
      </g>
    </g>
    <g id="Group_26" data-name="Group 26" transform="translate(93.014 93.014)">
      <g id="Group_25" data-name="Group 25" clip-path="url(#clip-path-10)">
        <rect id="Rectangle_13" data-name="Rectangle 13" width="330.659" height="330.659" transform="translate(-44.3 -44.3)" fill="url(#linear-gradient)"/>
      </g>
    </g>
    <g id="Group_28" data-name="Group 28" transform="translate(103.349 103.351)">
      <g id="Group_27" data-name="Group 27" clip-path="url(#clip-path-11)">
        <rect id="Rectangle_14" data-name="Rectangle 14" width="302.3" height="302.299" transform="translate(-40.5 -40.501)" fill="url(#linear-gradient)"/>
      </g>
    </g>
    <g id="Group_30" data-name="Group 30" transform="translate(113.685 113.685)">
      <g id="Group_29" data-name="Group 29" clip-path="url(#clip-path-12)">
        <rect id="Rectangle_15" data-name="Rectangle 15" width="273.939" height="273.939" transform="translate(-36.701 -36.701)" fill="url(#linear-gradient)"/>
      </g>
    </g>
    <g id="Group_32" data-name="Group 32" transform="translate(124.018 124.02)">
      <g id="Group_31" data-name="Group 31" clip-path="url(#clip-path-13)">
        <rect id="Rectangle_16" data-name="Rectangle 16" width="245.581" height="245.58" transform="translate(-32.901 -32.902)" fill="url(#linear-gradient)"/>
      </g>
    </g>
    <g id="Group_34" data-name="Group 34" transform="translate(134.353 134.354)">
      <g id="Group_33" data-name="Group 33" clip-path="url(#clip-path-14)">
        <rect id="Rectangle_17" data-name="Rectangle 17" width="217.223" height="217.222" transform="translate(-29.102 -29.102)" fill="url(#linear-gradient)"/>
      </g>
    </g>
    <g id="Group_36" data-name="Group 36" transform="translate(144.689 144.689)">
      <g id="Group_35" data-name="Group 35" clip-path="url(#clip-path-15)">
        <rect id="Rectangle_18" data-name="Rectangle 18" width="188.863" height="188.863" transform="translate(-25.303 -25.303)" fill="url(#linear-gradient)"/>
      </g>
    </g>
    <g id="Group_38" data-name="Group 38" transform="translate(155.023 155.023)">
      <g id="Group_37" data-name="Group 37" clip-path="url(#clip-path-16)">
        <rect id="Rectangle_19" data-name="Rectangle 19" width="160.505" height="160.506" transform="translate(-21.504 -21.503)" fill="url(#linear-gradient)"/>
      </g>
    </g>
    <g id="Group_40" data-name="Group 40" transform="translate(165.36 165.358)">
      <g id="Group_39" data-name="Group 39" clip-path="url(#clip-path-17)">
        <rect id="Rectangle_20" data-name="Rectangle 20" width="132.145" height="132.146" transform="translate(-17.704 -17.704)" fill="url(#linear-gradient)"/>
      </g>
    </g>
  </g>
</svg>
