<svg xmlns="http://www.w3.org/2000/svg" width="58.605" height="58.605" viewBox="0 0 58.605 58.605">
  <path id="Icon_ionic-logo-whatsapp" data-name="Icon ionic-logo-whatsapp" d="M32.084,2.25A28.66,28.66,0,0,0,3.314,30.8,28.253,28.253,0,0,0,7.442,45.539L2.25,60.855l15.929-5.06a28.819,28.819,0,0,0,42.676-25A28.659,28.659,0,0,0,32.084,2.25ZM46.39,41.64c-.677,1.678-3.738,3.209-5.089,3.28s-1.388,1.046-8.744-2.15S20.778,31.8,20.429,31.3s-2.849-4.061-2.714-7.647a8.152,8.152,0,0,1,2.8-5.982,2.817,2.817,0,0,1,1.993-.839c.579-.009.954-.017,1.383,0s1.072-.09,1.629,1.392,1.889,5.122,2.06,5.493A1.333,1.333,0,0,1,27.592,25a5,5,0,0,1-.78,1.188c-.384.412-.808.921-1.15,1.236-.382.349-.781.729-.379,1.474a22.016,22.016,0,0,0,3.9,5.2,20.073,20.073,0,0,0,5.769,3.835c.721.393,1.152.349,1.6-.122s1.915-2.06,2.433-2.769,1-.572,1.667-.3,4.207,2.166,4.928,2.558,1.2.592,1.375.9A6.042,6.042,0,0,1,46.39,41.64Z" transform="translate(-2.25 -2.25)" fill="#68d252"/>
</svg>
